<svg version="1.0" xmlns="http://www.w3.org/2000/svg" width="346.667" height="346.667" viewBox="0 0 260 260"><path d="M84.5 1c-.3.5-.4 1.4 0 1.9.3.5 0 1.3-.6 1.7-.8.4-.9.3-.5-.4.5-.8 0-1.2-1.3-1.2-1 0-2.2-.6-2.5-1.3-.3-.6-.3.1-.1 1.8.4 2.8.3 2.9-1 1.1-.8-1.1-1.5-1.4-1.5-.7s-.4.9-1 .6c-.5-.3-1-.2-1 .4 0 .5.6 1.2 1.3 1.5.8.4.7.5-.3.5-3.2-.2-4.1.1-3.4 1.3.6 1 .4 1-.7 0-1.8-1.6-2.9-1.5-2.9.4 0 .9.5 1.2 1.3.8.7-.4.9-.3.4.2s-1.4.9-2 .9c-.7.1-1.1.7-.9 1.4.1.7-.2 1-.8.6-.8-.5-.8-1.1 0-2 .7-.9.6-1.6-.7-2.6-1.6-1.3-1.7-1.2-.4.3.9 1.2 1 1.8.2 1.8-.6 0-1.1 1.2-1.1 2.7 0 2.2-.2 2.5-1 1.3-.8-1.3-1-1.2-1.1.5-.1 1.1-.1 3.1-.1 4.5.1 1.9-.1 2.1-.8 1-1.3-2.1-2.3-.5-1.1 1.8 1.4 2.6-.8 4.8-2.8 2.9-1.1-1-1.1-.8-.1 1.1.7 1.6 1.7 2.2 2.8 1.8 1.5-.5 1.4-.4-.1.8-2 1.6-1.9 3.5.3 5.4 1.3 1.1 1.1 1.1-.8.2-1.2-.6-2-1.5-1.7-2 .3-.5.1-1.1-.4-1.5-1.7-1-.2 3.9 1.6 5.2 1.5 1.2 1.5 1.3.1 1.3-.9 0-2 .5-2.4 1.1-.4.7 0 .9 1.4.5 1.2-.4 2.3-.2 2.8.5.4.7.3.9-.2.6-.6-.3-1.6.3-2.3 1.5-1 1.6-1 1.9.1 1.2 2.6-1.6 4.5-1.1 4 1-.3 1.1-.7 1.5-1 .8-.2-.6-.8-1.2-1.4-1.2-.7 0-.6.5.2 1.4.6.8 1.8 1.2 2.6.9.8-.3 1.4 0 1.4.7 0 .6.4.8 1 .5.6-.4.7.1.3 1.1-.4 1.1-.8 1.3-1.1.6-.5-1.6-1.9-1.5-1.9.2 0 .7.7 1.3 1.6 1.3 3.4 0 4.1.3 4.1 1.8 0 .8.7 1.5 1.6 1.5.9 0 1.2.5.8 1.2-.4.7.3.4 1.6-.7l2.3-2-1.2 2.3c-1.1 2.1-1 2.2 1.3 1.8 1.4-.3 2.9 0 3.2.6.4.6.2.8-.4.4-.6-.3-1.3-.2-1.7.4-.4.6-1.1.8-1.6.4-.5-.3-.8 0-.7.8.2.7-.4 1.2-1.2 1-1.1-.3-1 .2.4 1.7 2.4 2.6 2.6 2.6 2.1.1-.2-1.1 0-1.8.5-1.5 1.2.8.4 4-1 3.7-.8-.2-.9.5-.4 2 .6 1.9.4 2.1-.8 1.3-.7-.6-.5-.1.7.9 1.5 1.5 1.6 1.8.3 1.3-.9-.3-1.9 0-2.2.8-.3.8 0 1.2.7.9.8-.3 1.3.4 1.3 1.5s-.4 1.7-.8 1.4c-.5-.2-.7.7-.4 2.1.2 1.4-.1 2.7-.7 3-.8.3-.8.5.1.5.7.1 2.1.9 3 1.8 1.6 1.6 1.6 1.6 0 1.1-.9-.4-1.9-.1-2.2.7-.3.9 0 1.2 1 .8 1.2-.4 1.3-.1.5 2s-.7 2.5.5 2c1-.4 1.2 0 .8 1-.3 1-1.2 1.3-2.2 1-.9-.4-1.5-.4-1.2-.2 3.9 3.3 5.3 4.2 4.2 2.7-1.1-1.3-1.1-1.8 0-2.4.7-.4 1-.4.6.1-.4.4-.3 1.4.3 2.2.6.7.8 1.3.4 1.3s-.2.6.4 1.4c.9 1.1.9 1.6 0 2.2-.7.4-.9.3-.6-.2.3-.6-.3-1.6-1.4-2.2C75 93 75 93 76.5 95.4c1 1.4 2.2 2.3 3.1 1.9.8-.3 1.4 0 1.4.7 0 .6.5.8 1.2.4s.8-.3.4.5c-1 1.6.3 5.3 1.6 4.5.7-.5.8-.2.3.6-.6 1-1.1.9-2.2-.5-.7-1.1-1.3-1.4-1.3-.8 0 1.4 2.7 3.6 3.8 3 .4-.3 1.4-.1 2.2.5 1.2.8 1.2.9-.2.4-1.2-.3-1.8 0-1.8 1 0 .9.7 1.4 1.7 1.2 1.2-.2 1.8.4 1.9 2.1.1 1.3.5 2.6 1 3 1.2.8 1.1 3.4-.1 4.3-.6.5-.5.8.3.8.6 0 1.2.7 1.2 1.5s-.5 1.5-1.1 1.5c-.5 0-.7-.5-.3-1.2.4-.7.3-.8-.5-.4-.6.4-.9 1.1-.6 1.6.3.5.1 1.1-.5 1.5-.6.4-.7 1.2-.3 1.8.3.7-.3.4-1.4-.6-1.6-1.4-2-1.4-2-.2 0 .8.4 1.2.9.9.4-.3.8 0 .8.5 0 .6-.7 1.1-1.5 1.1s-1.5-.5-1.5-1.2c0-.6-.2-.9-.5-.6-1 1 .7 3.8 1.9 3.1.6-.3.8-.2.3.2-1.5 1.7-6.2 1.2-7.8-.8-1.2-1.5-1.8-1.7-2.4-.7-.6.9-.4 1.1.5.5.9-.5 1.1-.4.6.4-.4.6-1.1.9-1.6.6-1-.6-.8-2.4.4-4.5.5-.8-.2-.5-1.5.7-2.3 2.1-2.5 2.1-2.5.3 0-1 .3-1.8.7-1.7.6.2.9-.4.9-1.8 0-.3-.8-.1-1.8.4-1.4.7-1.9.6-1.9-.4 0-.8.4-1.2.9-.9.4.3.8 0 .8-.5 0-1.8-2.8-1.2-3.2.6-.3 1.5-.5 1.4-1-.5-.3-1.2-.2-2 .2-1.7.5.3 1.1.1 1.5-.5.3-.5-.1-1-.9-1-.9 0-1.6-.7-1.6-1.6 0-.8.5-1.2 1-.9.6.3 1 .1 1-.5 0-.7-.8-.9-2-.5-1.4.5-2 .2-2-1 0-1 .5-1.4 1.3-1 .6.4.2-.2-1-1.3s-1.9-2.3-1.5-2.7c.4-.5.2-.5-.5-.2-.6.4-1.4.1-1.6-.5-.4-.9-.6-1-.6-.1-.1.6.9 1.9 2.1 2.7 1.2.9 1.7 1.6 1 1.6h-1.9c-.5 0-.8-.6-.8-1.3 0-.6-.4-1.2-1-1.3-1.9-.1-4.5-1.6-4.1-2.3.2-.3-.3-1.3-1.2-2.1-1.4-1.3-1.5-1.3-1 .1.4 1.1 0 1.5-1.3 1.4-1-.1-2.2-.5-2.6-1-.5-.4-.3-.5.4-.1.6.3 1.4.2 1.7-.3.4-.5-.2-.8-1.1-.7-1 .2-2.2-.2-2.6-.8-.5-.6-.6-.2-.2 1.1.3 1.2.1 2.5-.6 2.9-.8.4-.9.3-.5-.4s.2-1.2-.4-1.2c-.6 0-.8-.5-.4-1.2.5-.7.3-.8-.5-.4-.7.5-1 1.5-.6 2.4.3.9.3 1.3-.1.9s-1.8 0-3 .8c-2.1 1.3-2.4 1.3-3.2-.1-.8-1.5-1-1.5-1.5 0-.4 1-.3 1.5.3 1.1.6-.3 1-.2 1 .4 0 .5.3 1.8.6 2.8.5 1.4.4 1.5-.4.4s-1.2-1-2.3.8c-.8 1.1-1.9 2.1-2.6 2.1-.7 0-1.3.3-1.4.7 0 .5-.3 2.1-.5 3.6-.3 1.7-.1 2.6.5 2.3.5-.4 1.3-.2 1.6.4.4.6.3.9-.2.8-.4-.2-1.9.5-3.3 1.5-2.8 1.9-2 2.3 1.3.6 2.1-1.2 2.1-1.1.4.8-1.9 2.2-2.2 3.3-.6 3.3.5 0 .7-.6.3-1.3-.5-.8-.2-.8.9.2 1.8 1.5 2.3 2.6.7 1.6-.5-.3-1-.1-1 .5s-.5.8-1.2.4c-1-.6-1-.5-.1.8.7.8 1 1.7.7 2-.3.3.1.5 1 .5.8-.1 1.5.2 1.6.8.1.5.7 1.6 1.3 2.4.9 1.1.9 1.3.1.8-.7-.4-1.6-.1-2.2.6-.9 1-.3 1.2 2.4 1.2 1.9-.1 3.4 0 3.4.1 0 .2-1.2 1-2.7 1.9-2.3 1.3-2.4 1.5-.6 1 1.9-.5 2.2-.3 1.6 1.2-.5 1.4-.4 1.6.8.8.8-.6.7-.3-.3.6-1.6 1.6-1.6 1.6.7 1.6 1.4 0 2.2-.4 1.8-1-.3-.6-.1-.7.5-.3.9.5.7 1.5-.5 3.4-1.7 2.7-1.7 2.7.2 1.2 1.1-.8 2.3-2 2.7-2.5.5-.7.8-.6.8 0s-.5 1.6-1.2 2.3c-.9.9-.8 1.2.8 1.3 1 .1 2.3.1 2.7 0 .5-.1.6.3.2.9-.3.5-.1 1 .5 1s.8.5.5 1.1c-.5.6-1.2.4-2-.8-.7-1-1.7-1.5-2.1-1-.4.4-.2.7.5.7s1 .3.8.8c-.3.4.1 1.3.9 2s1.4.8 1.4.2c0-.5.5-1 1.1-1 .5 0 .7.4.4 1-.3.5 0 1 .7 1 .9 0 .9.3-.2 1-.9.6-1 1-.3 1 .6 0 1.4-.4 1.8-1 .7-1.1 3.5-.2 3.5 1.2 0 .7-.5.6-1.3-.1-1-.8-1.4-.7-1.4.2 0 .7 1.2 1.4 2.6 1.5 1.4.1 2.8.7 2.9 1.3.3.6 1 .5 2-.3 1.3-1.1 1.5-1 .9.5-.5 1.4-.2 1.6 1.7 1.3 1.2-.2 2.9 0 3.7.5 1 .6 1 .9.2.9-.7 0-1.3.7-1.3 1.6 0 1.4.2 1.5 1.8.3 1.3-1 1.2-.8-.3 1-1.1 1.4-1.4 2.1-.7 1.7.6-.4 1.2-.2 1.2.4 0 .6.4.9.9.6 1-.7.9 2-.2 3-.3.4-.2 1.5.4 2.6 1.3 2.4.3 3.7-1.4 1.8-.9-1-.9-1.1 0-.6.9.5 1.1.2.7-.9-.7-1.7-1.4-1.5-1.8.7-.1.7-.6 2-1 2.8-.5.8-.6 1.2-.1.8.4-.4 1.5-.2 2.3.5 1.3 1 1.4.9.7-.2-.5-1-.4-1.2.4-.7.6.4.9 1.1.6 1.6-.3.5-.1 1.1.5 1.5.6.4.7 1.2.3 1.8-.4.6-.8 1.8-.9 2.7-.1.8-.5 2.6-.8 4-.6 2.5-.6 2.5.4.2s3-2.2 3 .1c0 .7-.4.6-1-.3-.8-1.3-1-1.3-1 .2 0 .9.8 1.9 1.8 2.1 1.3.4 1.2.5-.5.6-1.2 0-2.4.5-2.7 1-.3.4.9.7 2.7.5 1.7-.1 2.6 0 1.9.3-1 .4-1 .8 0 2.1.8 1 .9 1.3.1.9-.6-.4-1.4-.3-1.8.3-.3.5 0 1 .7 1s1.9.9 2.5 1.9c1.1 1.7.9 2.1-.9 2.7-1.6.5-1.8.8-.7 1.5 1.5.9.9 1.9-1.5 2.3-.9.1-2.3 1.1-3.1 2.2-1.5 1.9-1.5 1.9-.8-.1.3-1.1 1.1-2.7 1.7-3.5 1-1.3.9-1.3-.8 0-1.6 1.3-2 1.2-3.7-.9-1-1.3-1.6-2.7-1.3-3.2.3-.5 0-.9-.6-.9-.7 0-1 .7-.7 1.4.4 1 .1 1.3-.9.9-.8-.3-1.3-1.2-1-1.9.7-1.8-.9-2.7-3.5-1.9-1.7.6-1.8.9-.7 2.3.9 1.2.7 1.2-.9-.2-1.3-1-2-2.3-1.7-2.7.8-1.4 1.6-1 .8.3-.5 1-.4 1 .6.1 2.2-2 .6-2.4-3.3-.8-3.4 1.4-3.6 1.4-3.2-.5.2-1.1-.1-2.3-.7-2.6-.7-.4-.8-.2-.4.4.4.7.1 1.2-.9 1.2s-1.3-.5-.9-1.2c.6-1 .4-1-.8 0-.9.7-2 1.2-2.4 1.1-2.8-.5-3.6.1-2.4 1.6 1.1 1.3 1 1.4-.4.9-.9-.3-1.6-1-1.6-1.4 0-.5-.9-.8-1.9-.7-1.1 0-1.7.5-1.5.9.3.5 1 .6 1.5.3s.6.1.3 1c-.4.9-1.1 1.2-1.8.7-1.3-1-3.6-1-3.6 0v1.4c0 .4.8 0 1.8-.7 1.5-1.2 1.6-1.2.5.2-1 1.2-1 1.8 0 2.9.6.7-.1.4-1.8-.6-1.6-1.1-2.6-1.3-2.2-.7.5.8.3 1.3-.3 1.3s-.8.5-.5 1c.4.6 1.2.7 1.8.3.7-.4.6.1-.2 1-1.1 1.4-1.7 1.5-3 .5-.9-.7-1.3-.9-.9-.4s.2 1.8-.4 3c-1.1 2-1 2 .8.6s1.8-1.4.3.5c-2.5 3.1-4.3 11.1-2.7 12.1.4.3.5 1 .2 1.6-.5.7-.1.9.9.5.9-.3 1.9-.1 2.3.5.5.7.2.8-.6.3-1-.6-1.2-.4-.7.9.4 1 .7 2 .7 2.3 0 .3.8-.1 1.8-.8 1.5-1.3 1.6-1.2.4.3-.8 1-1 2.3-.6 3 .8 1.3 1.3 3.6 1.6 7.5.1 1.2.6 1.9 1 1.7.4-.3.8.2.8 1 0 .9.5 1.6 1.1 1.6.5 0 .7.5.3 1.2-.4.7-.3.8.5.4.8-.5.6-1.5-.9-3.6s-1.7-3.1-.9-3.6c.8-.4.9-.3.5.4s-.2 1.2.3 1.2c.6 0 1.1.7 1.1 1.6 0 .9.5 1.2 1.3.8.6-.4.9-.4.5.1-.4.4-.1 2 .7 3.5.8 1.5 1.3 2.9 1.2 3.2-.1.2.5-.4 1.4-1.4 1.6-1.7 1.7-1.7 2.5 0 .4.9.6 2.3.5 2.9-.1.7.3 1.3.9 1.3.5 0 1-.8 1-1.8.1-1.2.4-1 1.3.8.8 1.7 2.1 2.6 4.1 2.7 1.6.1 3.3.7 3.6 1.4.6.8.9.7 1.2-.2.4-1.1.8-1.1 1.9-.2 2 1.6 3.1 1.7 4 .1.5-.8.9-.9.9-.2s1.2 2 2.8 2.9l2.7 1.8-2.5-2.9c-1.4-1.6-1.8-2.3-1-1.7 1.8 1.6 3.4 1.7 2.4.1-.4-.7-.3-.8.5-.4.6.4.8 1.3.4 1.9-.3.7.3.3 1.5-.7 1.2-1.1 2.2-1.5 2.2-1s.7 0 1.5-1c.8-1.1 1.5-1.5 1.5-1 0 .6-.5 1.5-1 2-.7.7-.6 1.1.5 1.1.8 0 1.5-.6 1.5-1.4 0-1.1.4-1.1 2.3-.2l2.2 1.2-2-2.4c-1.1-1.3-1.3-1.9-.6-1.2.7.6 2 .9 2.9.6.9-.4 1.3-.2.9.4-.5.8.1.7 1.8 0 1.4-.7 2.3-1.7 2.1-2.4-.3-.7.5-1 2.2-.8 1.5.2 2.1.2 1.5-.1-1.5-.7-1.7-3-.3-3.9.5-.3.7 0 .4.8-.3.8.2 1.7 1 2 1.1.4 1.3.1.9-1-.5-1.2-.3-1.4.8-.8 1 .7.8.1-.4-1.8-1.8-2.7-1.8-2.8.3-1.5 1.1.7 2 1.7 2 2.3 0 .5.5.2 1.1-.8.6-.9 1.5-1.4 2.1-1.1.7.4.8.2.4-.5-.4-.6-1.1-.9-1.5-.7-.4.3-.8-.1-.8-.9s.3-1.4.6-1.3c2.2.2 4.1-.4 4.1-1.3 0-.5-.6-.7-1.2-.4-.7.4-.6.1.3-.7.9-.7 1.7-1.8 1.8-2.3.2-.6.5-1.2.8-1.5.4-.3.3.1-.1.7-.6 1.2.4 1.6 3 1.2.4 0 1.1.5 1.6 1.3.8 1 .9 1 .5-.2-.2-.8-.9-1.5-1.4-1.5-.6 0-1.4-.3-1.7-.8-.3-.4-.3-.5 0-.2.4.2 1.5 0 2.5-.6 1.5-.8 1.7-.6 1.2.7-.4 1.1-.3 1.5.5 1 .6-.3 1.3-.2 1.7.4.4.6 1.1.8 1.6.5.5-.4.9.4 1 1.7 0 1.3.3 1.7.6 1 .2-.6.9-1.2 1.5-1.2s.8.6.5 1.4c-.4 1.1 0 1.3 1.6 1 4.6-1 6.6-1.1 6.1-.2-.3.5-1.2.7-2 .4-1.8-.7-2.9 1.3-1.5 2.7.9.9 1.1.8.5-.6-.5-1.5-.3-1.6 1.7-.9 1.3.4 3.1.8 3.9.7 2.1-.2 4.1 1.5 3.3 2.8-.4.6-.1.7.6.2.9-.5 1-1 .2-1.8-.6-.6-1.1-1.8-1.1-2.6.1-1.3.3-1.2 1.1.2.9 1.5 1.3 1.6 2.7.5.9-.7 1.3-.8.9-.2-.4.7-.1 1.4.7 1.7.8.3 1.3-.1 1.2-1.1 0-.9.5-1.6 1.3-1.4.7.1 2-.3 2.9-1 1.3-1.1 1.4-1 .4.9-.8 1.4-.9 2.4-.2 2.8 1 .6 1.1.5 1.4-1.7 0-.6.7-1.3 1.5-1.6.9-.3 1.1 0 .6.8-.5.8-.3 1.1.6.8.8-.3 1.3-1 1.2-1.6-.2-.7.8-.8 2.8-.2 2.6.8 2.9.7 1.9-.5s-.9-1.5.4-1.5c.9 0 1.6.6 1.6 1.2 0 .9.4.8 1-.2.9-1.3 1.1-1.3 2.1 0 .9 1.3 1 1.3.6 0-.2-.8-1.2-1.4-2.2-1.3-1.1.1-1.4-.2-.7-.9s1.8-.6 3.3.3c2.4 1.2 2.4 1.2.5-1-1.1-1.1-1.4-2.1-.8-2.1.7 0 1.2.4 1.2 1 0 .5.5 1 1.1 1 .6 0 .9-.7.6-1.4-.4-1-.1-1.3.9-.9 1.7.6 1.8 1.5.3 3-.8.8-.7 1.3.3 1.8.7.5 1 .5.6 0-.4-.4-.3-1.4.3-2.1 1.3-1.6 5-.1 4.5 1.9-.1.6-.1.9.2.4.2-.4 1.3-1.2 2.5-1.9 2.2-1.1 2.2-1.1.3 1.1-1.9 2.1-1.9 2.1 0 2.2 1 .1 2.6.1 3.4 0 1.3-.2 1.3-.1 0 .8-.8.5-1.7.8-2 .6-.4-.2-.7.2-.7 1s.4 1.2.8.9c.4-.2 1.4.2 2.2 1 .8.8 1.8 1.1 2.3.6.5-.4 1.8-.4 2.9.1 1.8.9 1.8.9-.2.5-1.3-.2-2.3 0-2.3.5s.4.9 1 .9c.5 0 .7.8.3 1.8-.5 1.5-.4 1.4.9-.2 1.2-1.5 1.7-1.6 2.3-.6.5.9.4 1.1-.3.6-.7-.4-1.2-.5-1.2-.2 0 1.1 6.2 3.7 7.6 3.2.8-.3 1.4-.1 1.4.5s1 .8 2.3.4c1.5-.4 1.8-.3.9.3-1.1.7-1.1 1 .3 1.5.9.4 1.8.1 2.1-.8.5-1.2.9-1.2 2.9.1 1.3.9 2.7 1.5 3 1.4.4-.1 1 .2 1.3.6.4.4.2.4-.5 0-1.6-.9-2.8 1.3-1.4 2.7.9.9 1.1.8.6-.3-.4-1.2.2-1.6 3-1.6 1.9 0 3.5.5 3.5 1s.3.6.7.3c.3-.4 1.3-.1 2.1.6 1.3 1 1.4.9.7-.3-.5-.8-1-2.3-1-3.2-.1-1.4.1-1.5 1.2-.7.7.6 1.3.8 1.3.4s.6-.3 1.3.3c.8.7 1.8.7 2.7.2.8-.5 1.8-.6 2.2-.4.5.3 1.1-.2 1.4-1 .3-.9 1.1-1.6 1.6-1.6.6 0 .8.7.5 1.5-.4.8-.1 1.7.5 2.1.6.4.8.3.5-.2-.8-1.3.9-3.9 2.5-3.9.7-.1 1.2-.6 1-1.3-.2-1.1 1.1-1.6 3.1-1.3.4.1.2-.9-.4-2.1-1.2-2.2-1.1-2.2.6-.8 1 .8 1.6 1 1.3.4-.4-.5.9-2.3 2.7-3.9 1.9-1.5 3.2-3.2 2.9-3.6-.3-.5-.1-.9.4-.9s.8-1.1.7-2.4c-.3-1.9.1-2.3 1.3-1.8 1.5.5 1.6.4.2-1.3-1.1-1.4-1.1-1.7-.1-1.1 1 .7 1.2.3.6-1.3-.4-1.3-.2-2.1.5-2.1.6 0 .9.4.6.8-.2.4 0 1.4.6 2.2.8 1.2.9 1.2.5-.2-.3-.9-.1-1.9.6-2.2.8-.3.8-.5-.2-.5-1.1-.1-1.1-.4-.1-1.6 1.5-1.8-.1-2-1.9-.3-.8.7-.6.1.4-1.5.9-1.5 1.9-2.7 2.2-2.7.2 0 .1.4-.2 1-.3.6-.1 1 .4 1 1.3 0 1.4-1 .1-3-.6-1-.4-2.1.8-3.5 1.4-1.6 1.4-1.7.1-.7-1.6 1.2-2.9.7-2.9-1 0-.5.5-.6 1-.3.6.3 1 .1 1-.4 0-.6-.4-1.1-1-1.1-.5 0-1-.5-1-1.1 0-.5.5-.7 1.1-.3.6.3.4-.5-.5-1.8-.9-1.4-1.3-2.8-.9-3.3.5-.4.2-.5-.4-.1-1.4.8-1.7-.4-.5-2 .4-.5.3-.6-.3-.2-.5.5-1.8.8-3 .7-2 0-2 0 0-.9 1.1-.5 1.4-.9.7-.9-.7-.1-1.1-.5-.8-1 .3-.5-.1-1.1-.9-1.4-.9-.4-1.2-.1-.9.7.3.8 0 1.7-.7 2.2-.8.4-1 .3-.5-.4.4-.7.2-2-.3-2.9-.6-1-1.1-1.4-1.1-1 0 .5-.7.1-1.6-.7-.8-.9-2-1.6-2.7-1.6-.6 0-.2.7.9 1.6 1.8 1.5 1.8 1.5-.2.5-1.2-.6-2.5-.7-2.9-.3-.4.4-.5-.1-.3-1 .1-.9-.1-1.7-.7-1.7-.5-.1-1 .3-1 .8s-.4 1.3-.9 1.8c-.5.4-.6.3-.2-.4.3-.6.2-1.4-.4-1.8-.9-.6-1.4.8-1.1 2.8.1.5-.3.6-.9.2-.6-.3-.8-1.1-.5-1.6.4-.5.2-.9-.4-.9-.5 0-1.2.8-1.4 1.8-.4 1.5-.5 1.5-.6.1 0-.9-.8-2-1.7-2.3-.8-.3-1.3-.2-1 .3.8 1.3-2.1 3.4-3.5 2.5-.9-.5-1-.2-.6.9.3.9.1 1.9-.5 2.3-.7.4-.8.3-.4-.4s.3-1.2-.3-1.2-.8-.8-.5-1.8c.5-1.5.4-1.5-.6.1-.7 1-.9 2.1-.6 2.4.3.4-.3 1.3-1.4 2-1.6 1.1-2.4 1.2-3.5.3-1-.8-1.5-.8-2.1.1-.4.7-.3.9.3.6.6-.4 1.3.2 1.6 1.4.5 1.7.3 1.8-1 .7-.9-.7-1.9-1.3-2.2-1.3-.3 0-.5-.4-.3-.8.1-.5-.2-.5-.9-.2-.7.5-.3 1.6 1.3 3.3 1.3 1.4 1.7 2.2 1.1 1.8-.8-.4-1.3-.2-1.3.6 0 1-.2 1-.9-.1s-.9-1.1-1.4 0c-.4 1.1-.6 1.1-.6.1-.1-.7-.5-1.1-1-.7-1.2.7-3.3-2.9-2.3-4 .4-.5.1-.5-.6-.1s-1 1.2-.7 1.7c.3.5-.1.6-1 .2-.9-.3-1.3-.9-.8-1.2.4-.3 1.5-1.5 2.3-2.6 1.4-2 1.4-2-.6-.2-2.1 1.7-2.1 1.7-2-1.2.1-2.2.4-2.7 1.4-1.9.7.6 1.5.8 1.9.4.3-.3.2-.6-.4-.6-.6 0-1.3-.7-1.7-1.5-.3-.9 0-1.5 1-1.5.9 0 1.2.5.8 1.2-.4.7-.3.8.4.4.6-.4.9-1.3.6-2.1-.4-.8-.9-1.3-1.3-1-.4.2-.8-.2-.8-1s.4-1.2.9-.9c.4.3.8-.2.8-1 0-.9-.5-1.6-1.2-1.6-.6 0-.8-.3-.5-.6.4-.4 1.3-.1 2.1.5 1.1.9 1.6.9 2.2 0 .4-.8.3-.9-.4-.5s-1.2.3-1.2-.3c0-.5.8-1.5 1.8-2 .9-.6 1.1-1.1.5-1.1-1.7 0-1.7-2.7 0-3.3.9-.4.8-.6-.2-.6-1.1-.1-1-.6.3-2.6 1.4-2.1 1.4-2.4.1-1.9-.8.4-1.5 1.1-1.5 1.8 0 .6-.5.4-1-.4s-1-2-1-2.5c0-.6.4-.4.9.3.6 1 1 1 2-.2.9-1.1.9-1.6 0-2.2-.8-.4-.9-.3-.5.4 1.1 1.8 0 1.4-1.5-.5-1.2-1.4-1.2-1.6 0-.8 1.1.6 1.3.2.9-1.9-.4-1.9.2-3.4 2-5.4 1.4-1.5 3-2.6 3.5-2.4.5.1.5-.3.1-.9-.5-.9-.2-1 1-.6.9.4 1.5.3 1.2-.1-.2-.4-.1-1.4.4-2.2 1-1.7 4.3-2.3 3.4-.7-.5.8-.3.8.6 0 1.1-1 1.6-.9 2.7.5 1.1 1.3 1.1 1-.1-1.4l-1.4-3 2.9.2c1.7.1 2.6-.2 2.3-.8-.4-.6.2-.8 1.7-.3 1.9.5 2.1.4.9-.4-.8-.6-1.1-1.1-.6-1.1.5 0 .2-.8-.5-1.8-1.2-1.5-1.1-1.5.8.1 1.6 1.4 2.3 1.5 2.9.6.5-.8.3-1-.6-.4-.8.5-1.1.3-.9-.4.3-.7.7-1.1 1-.9.3.2 1.4-.4 2.4-1.2 1.7-1.4 1.8-1.3 1.1.5-.4 1.1-.3 1.6.1 1.1.4-.4.9-2.3.9-4.2.2-4.3.9-5.1 3.1-3.3.9.8 1.4.9 1 .2-.4-.6 0-1.8.8-2.6 1.6-1.6 2.1-3.2.7-2.3-.4.2-1.4-.5-2.2-1.7-1.2-2-1.2-2.1.4-.8.9.8 2 1.1 2.3.7.4-.4.1-1.1-.7-1.6-1-.7-1.1-1-.2-1 .6 0 1.2-.5 1.2-1.1 0-.5-.6-.7-1.2-.3-.7.4-.9.3-.5-.1.4-.5 1.4-1 2.2-1.1 1.1-.2 1.2.2.5 1.6-.7 1.3-.7 2.1 0 2.5.6.4 1 .3.9-.2-.4-2.1.2-3.4 1.4-2.8.6.4.1-.4-1.3-1.6-2.4-2.2-2.5-2.2-.2-1.6 2.6.6 2.8.1.7-1.9-1.7-1.8-2-3.4-.4-3.4.5 0 .8.4.4.9-.3.5-.1 1.3.5 1.6.6.4 1 .3.9-.2-.4-2.2.2-3.4 1.4-2.7.8.5.8.2-.2-.9-.7-.9-1-1.7-.5-1.7.4 0 .3-.5-.3-1.1-.6-.6-1.7-.8-2.4-.4-.9.6-.7 1.1.6 2.2 1.1.7 1.4 1.3.8 1.3-.6 0-1.6-.6-2.2-1.4-.9-1.1-.8-1.7.4-2.9.8-.9 1.1-1.8.6-2.1-.5-.4-.8-1.8-.6-3.2.1-1.7-.2-2.4-1.1-2-.7.3-2.5-1.1-4-3.1s-2.2-3.3-1.6-2.9c.7.4 1.2.2 1.2-.3 0-.6-.7-1.1-1.5-1.1s-1.4-.5-1.3-1.1c.2-.6-.4-1.4-1.2-1.6-.9-.3-1.1-.1-.5.4.6.4 1.1 1.7 1.2 2.8.1 1.1 0 1.4-.3.7-.3-.6-1.1-.9-1.6-.6-.7.4-.8.2-.4-.5.4-.6 0-1.4-.8-1.7-.9-.3-1.3-1.1-.9-1.8.3-.6-.4-.2-1.7.9-1.3 1.1-2 1.5-1.7.8.4-.6.3-1.4-.3-1.8-.5-.3-1 .1-1 .9s-.5 1.8-1.2 2.2c-.7.4-.8.3-.4-.4s.3-1.2-.3-1.2c-.5 0-1.3.5-1.6 1-.4.6-1 .8-1.4.6-.4-.3-1.9.6-3.4 2s-2.7 2-2.7 1.5c0-.6.7-1.4 1.6-1.9 1.5-.8 1.5-1 0-1.5-1-.4-1.5-.3-1.1.3.3.6-.1 1.3-.9 1.6-.9.3-1.3 1-1 1.5.3.5.1.9-.5.9-.5 0-1.1-.3-1.4-.8-.2-.4-.2-.1-.1.5.2.7-.6 1.7-1.7 2.3-1.1.6-1.7 1.5-1.4 2.1.4.5-.1 1.2-.9 1.5-.9.3-1.6 1.1-1.6 1.7 0 .5.9.2 2-.8s1.7-2.3 1.3-2.9c-.3-.6-.2-.7.2-.3 1.2 1.1 1.5 3.8.4 3.1-1-.6-2.9 3.6-2.2 4.9.2.4-.1.6-.9.5-.7-.2-1.2.3-1 1 .1.8-.2 1.1-.8.7-.8-.5-.5-1.3.6-2.6 1.5-1.7 1.6-1.9.2-1.4-2 .8-3.1 3.3-2.1 4.8.4.7-.2.5-1.2-.3-1.7-1.4-1.8-1.4-.5 1s1.2 2.5-.7.8c-1.5-1.4-2.2-1.5-3.1-.6-.7.7-1.2 1.8-1.2 2.6 0 1.2-.3 1.2-1.7.1-1.1-1-1.4-1-.9-.2.4.8.2 1.3-.4 1.3-.6 0-.8.5-.4 1.2s.3.8-.5.4c-.7-.4-.9-1.7-.6-2.9.4-1.4.3-1.8-.3-.9-.9 1.3-4.6 1.2-5.9-.3-.5-.4-.3-.5.3-.2.7.4 1.2-.2 1.2-1.7 0-1.2-.7-2.4-1.4-2.5-.8-.1-2.2-.2-3.1-.3-1.5-.2-1.7-1-1.5-4.5l.4-4.2 2.6 1.5c2.3 1.4 2.4 1.4.9.1-1.5-1.2-1.6-1.9-.7-3.6.6-1.2 1.5-2.1 2.1-2.1.6 0 .7-.5.4-1-.4-.6-1.1-.7-1.7-.4-.6.4-.8.2-.4-.4.3-.6 1.5-.9 2.6-.7 1.1.2 2-.1 2-.6 0-.6.5-.7 1.2-.3.7.4.8.3.4-.4-.7-1.1.6-1.7 2.7-1.3.5.1.5-.3.2-.9-.4-.6-1.4-.9-2.4-.6-1.3.5-1.3.3.2-.8 1-.8 1.7-1.8 1.6-2.2-.1-.4.8-1.8 2-3.1 1.3-1.2 1.8-2.3 1.3-2.3-.6 0-1-.9-.9-2 .1-1.1.5-2 1-2s.7.6.4 1.4c-.3.8 0 1.7.7 1.9 1 .4 1.2-.1.9-1.4-.3-1.1-.2-1.9.3-1.7.5.2 1-.2 1.1-.7.1-.6-.5-.9-1.2-.7-1 .2-1.3-.3-.9-1.2.3-.9 1-1.4 1.6-1.3.6.1 1.2-.8 1.4-2.1.4-2-.6-2.7-3.1-2.2-.5.1-.2-.7.7-1.7.8-1 1.4-2.8 1.2-4.1-.2-1.2.1-2.2.7-2.2.5 0 .8.4.5.9-.3.5.1 1.1.9 1.4 1.2.5 1.2.2.3-1.8-.6-1.4-1.6-2.1-2.2-1.8-.6.4-.5-.1.3-1.1 1.1-1.3 1.6-1.4 2.2-.4.6.8.9.9.9.2 0-.6-.8-1.8-1.7-2.5-1.1-1-1.4-1-.9-.2.4.7.2 1.3-.3 1.3-1.4 0-1.4-1.7-.1-2.5 1.6-1 1.2-2.8-.5-2.1-.8.3-1.5.1-1.5-.4 0-.6.7-1 1.6-1 1.3 0 1.1-.5-.7-2.1-1.3-1.1-1.9-1.8-1.4-1.6.6.3 1.6-.1 2.3-.9.7-.8.9-1.4.3-1.4-.5 0-1.2-.7-1.5-1.6-.5-1.4-.4-1.5.8-.5 1.1.9 1.5.8 2-.4.3-.9.2-1.3-.4-1-.5.3-.7-.1-.4-.9.6-1.6 3.3-1.1 4.6.8.4.6.6-.4.4-2.2-.2-1.8.1-3.5.7-3.9.6-.4.7-.1.2.7-.5.8-.3 1.1.6.8.8-.3 1.4-1 1.4-1.6 0-.5.4-1.4.9-1.9s.6-.3.2.4c-.9 1.5.3 1.7 2.4.3.8-.5 1-1 .4-1-.7 0-1.5-.7-1.8-1.6-.3-.8-.2-1.3.3-1 1.3.9 4.4-3.2 3.7-4.9-.5-1.3-.2-1.4 1.5-.4 1.6.8 2 .8 1.4 0-.4-.7-.1-1.8.5-2.6.9-1.1.9-1.5.1-1.5-.6 0-1.1.4-1.1 1 0 .5-.4 1-.8 1-.5 0-.9-.7-.9-1.5s.5-1.5 1.2-1.5c.6 0 1.1-.9 1.1-1.9 0-1.3-.6-1.8-1.8-1.6-1.7.4-1.7.2-.3-1.7 1.3-2 1.3-2.4-.3-4.2-1.7-2.1-1.7-2.1.5-.3 1.2 1.1 1.9 2.5 1.6 3.3-.3.8.1 1.4.8 1.4.7 0 .9-.3.6-.7-.4-.3-.2-1.2.5-2 .9-1.1.8-1.3-.3-1.1-.8.2-1.3-.4-1.3-1.4.1-1-.2-1.6-.6-1.5-.4.1-2-1.4-3.6-3.3s-2.3-3.1-1.6-2.6c.7.4 1.2.2 1.2-.4 0-.6.4-.9.8-.6.5.3.9-.1.9-.9s-.3-1.4-.6-1.3c-2.5.2-3.2-.4-2.6-2.5.4-1.4.3-1.8-.3-.9-.7 1-1.1 1-2.2-.3-1-1.2-1.5-1.3-2.8-.3-1.3 1.2-1.4 1-.3-1.1.8-1.5.9-2.1.2-1.7-.6.4-1.1.2-1.1-.3 0-.6-.5-1.1-1.1-1.1-.8 0-.8.4 0 1.4.8 1 .9 1.6.1 2.1-.6.4-.9.1-.8-.7.2-.7-.3-1.2-1-1-.8.1-1.1-.2-.7-.8.3-.5 0-1-.9-1-.8 0-1.7.6-2 1.2-.3.7-.3.2.1-1.2.5-2 .3-2.3-.8-1.4-1.8 1.3-4.5 1.1-4.2-.3.1-.6-.6-.9-1.7-.6-1.1.3-2 1-2 1.7 0 .6-.5.4-1-.4-.9-1.3-1.1-1.3-2 0-.6.9-1 1-1 .3 0-.6.5-1.5 1-1.8.6-.3 1-1.2 1-1.8 0-.7-.5-.4-1.1.6-.8 1.3-1.4 1.5-3 .7-1-.6-1.9-.9-2-.8 0 .2-.2 1.3-.3 2.5-.2 1.3-.6 2.6-1.1 3-.4.5-.6 0-.2-.9.3-.9 0-1.9-.8-2.2-1-.3-1.2 0-.8 1.2.6 1.5.5 1.6-1.2.2-1.1-.9-1.6-1-1.1-.3 1.3 2.3-.6 3.8-2.2 1.7-1.4-1.8-1.4-1.8-.8 0 .5 1.4.2 1.7-.9 1.2-.9-.3-1.3-.2-1 .4.3.6.1 1-.4 1-.6 0-1.1.5-1.1 1.1 0 .5.5.7 1.2.3.7-.4.8-.3.4.5-.4.6-1.2.9-1.7.6-.5-.4-.9-.1-.9.4 0 .6.5 1.1 1.2 1.1.6 0 .8.3.5.6-.4.4-1.3.2-2-.4-1.6-1.4-2.8-.6-2 1.4.3.8 1 1.1 1.6.7.6-.3.7-.1.3.5-.5.8-1.3.9-2.5.2-2.1-1.1-3.2-.4-2.4 1.6.3 1 0 1.2-1 .8-.8-.3-1.8 0-2.3.7-.4.8-.3 1 .4.5.7-.4 2-.2 2.9.4 1.6.9 1.5 1-.7.8-1.6-.2-2.4.2-2.2 1 .1.8-.2 1.1-.8.7-.6-.3-.8-1.1-.5-1.6.7-1-.4-1.5-5-2.4-4.6-.9-4.9-1-6.2-1.8-.7-.5-1.3-.4-1.3.2 0 .5-.9.8-2 .6-1.1-.2-2 .1-2 .7 0 .5.8.7 1.8.4 1.5-.5 1.4-.4-.2.9-2.1 1.6-4 1.1-2.9-.8.4-.8.1-.7-.9.1-1.4 1.1-1.8 1-2.6-.4-.8-1.5-.9-1.5-1.5 0-.4 1-.3 1.5.2 1.2.5-.3 1.1 0 1.4.8.4 1 0 1.2-1.4.9-1.8-.5-2.4-1.6-1.9-3.8.1-.6-.2-.7-.6-.2-1 .9-4.5-2.3-3.8-3.5.3-.4 0-.7-.8-.6-.7.2-1.2-.3-1.1-.9.2-.7 0-1.2-.5-1.2-.4.1-1.5.1-2.5 0-1.5-.1-1.6-.5-.7-2.4 1-2 1-2-1.1.3-1.6 1.8-2.1 2-1.6.6.5-1.3.3-1.7-.7-1.3-1 .4-1.3.1-.9-.9s0-1.2-1.3-.7c-1.2.4-1.5.3-1-.5.4-.7.2-1.2-.4-1.2-.6 0-.8-.5-.4-1.2.5-.7.3-.8-.5-.4-.7.5-1 1.5-.7 2.5.5 1.2.2 1.1-.9-.3-.8-1.1-1.5-1.6-1.5-1-.1.5-.8-.2-1.6-1.6-1-1.7-1.3-1.9-.9-.5.3 1.1.3 1.6-.1 1.2-.4-.4-1.4-.1-2.2.6-1.3.9-1.4.9-.8-.1.4-.7.2-1.2-.5-1.2-.8 0-.7-.5.2-1.8 1.3-1.5 1.2-1.6-.3-.4-.9.8-1.4 2.1-1.2 3 .5 1.5.4 1.5-.6-.1-.6-.9-.8-2.2-.5-2.7.3-.6.4-1 .1-1-.3 0-.8.4-1.1 1zM165 4.1c0 1.4-1.7 1-2.3-.5-.4-1-.1-1.3.9-.9.7.3 1.4.9 1.4 1.4zm-10 5.3c0 .3-.4.8-1 1.1-.5.3-1 .1-1-.4 0-.6.5-1.1 1-1.1.6 0 1 .2 1 .4zm36.6 5.5c-.6.2-1.2-.1-1.4-.8-.2-.6-1-1.8-1.8-2.5-.8-.8-1.4-1.8-1.4-2.3 0-.4 1.2.6 2.8 2.2 1.5 1.7 2.3 3.2 1.8 3.4zm-80.9 1.3c1.8 1.8 3.3 3.7 3.3 4.2 0 .7-.3.8-.8.1-.4-.6-1.6-1.5-2.7-2.1-1.1-.6-2-1.7-2-2.5s-.8-1.3-1.9-1.1c-1.1.2-1.5-.1-1.1-.7 1-1.6 1.6-1.4 5.2 2.1zm35.1 2.3c-.3.3-.9-.2-1.2-1.2-.6-1.4-.5-1.5.5-.6.7.7 1 1.5.7 1.8zm-16.8.4c0 .5-.7 1.1-1.4 1.4-1 .4-1.3.1-.9-.9.6-1.5 2.3-1.9 2.3-.5zm2.5 0c.3.5.2 1.2-.3 1.5-.5.3-.9-.1-.9-.9 0-1.7.3-1.9 1.2-.6zm6.5 1.6c0 .1-1.1.5-2.4.7-1.6.3-2.3.1-1.9-.7.3-1 4.3-1 4.3 0zM76.2 75.2c-.9.9-.9 1.5.1 2.7 1.1 1.4 1 1.4-.6.2-1.3-1-1.5-1.7-.6-2.7.6-.8 1.4-1.4 1.7-1.4.3 0 .1.5-.6 1.2zm103.5 10.2c0 .8-.6 1.2-1.5.9-1.1-.5-1.1-.7 0-1.4.7-.5 1.3-.9 1.4-.9 0 0 .1.6.1 1.4zm-88.3 26.7c-.2.4.2 1 .8 1.2.8.4.9.6.2.6-.6.1-1.7-.5-2.3-1.2-.8-1-.7-1.4.4-1.4.8 0 1.2.4.9.8zm100.9.5c-.7.3-.9 1.3-.6 2.2.4 1.4.3 1.4-.5.2-1.2-1.6-.7-3 1.1-2.9.9 0 .9.2 0 .5zm-99 3.7c.7 1.9-.8 4.3-1.7 2.8-.4-.6-.1-1.1.6-1.2 1 0 1-.2.1-.6-1.5-.5-1.7-2.3-.4-2.3.5 0 1.1.6 1.4 1.3zm-59.6 1.3c-.3.3-1.2.4-1.9.1-.8-.3-.5-.6.6-.6 1.1-.1 1.7.2 1.3.5zm56.8 6.4c.3.5.1 1-.4 1-.6 0-1.1-.5-1.1-1 0-.6.2-1 .4-1 .3 0 .8.4 1.1 1zm87.7 5.2c-.7.7-1 .5-.7-.8.5-2.9.6-3 1.2-1.6.3.8.1 1.8-.5 2.4zm40.2 14.3c-.4.8-1.1 1.2-1.7.8-.8-.5-.7-.8.1-1.1.7-.2.9-.9.6-1.4-.4-.7-.2-.8.4-.4.6.4.9 1.3.6 2.1zm-5.4 6.6c0 1.5-1.8 1.9-2.3.6-.3-.8.1-1.4.9-1.4s1.4.4 1.4.8zm-23.7 17.6c-.6 1.5-2.3 1.8-2.3.3 0-.6.4-1 1-1 .5 0 .7-.8.4-1.8-.5-1.3-.4-1.4.4-.3.6.8.8 2 .5 2.8zm-2.8 17.2c.3.5 0 1.3-.6 1.7-.7.4-.9.3-.5-.4.3-.5 0-1.3-.6-1.5-.9-.4-1-.6-.1-.6.6-.1 1.4.3 1.8.8zm-.4 5.4c-.8.8-1.4.7-2.3-.2-1.1-1-.9-1.1.6-.5 1.5.6 1.7.4 1.1-.6-.6-.9-.4-1.1.4-.5.9.5 1 1 .2 1.8zM57 202.4c0 1.1-1.9 1.5-2.5.6-.3-.5.1-1 .9-1 .9 0 1.6.2 1.6.4zm16.1 6c-.5.6-1 1.5-1.1 2.1-.3 2-.6 1.4-.5-1.4 0-1.9.4-2.7 1.3-2.4.8.4.9.9.3 1.7zm-3.7 2.8c-.3.4-.9.8-1.5.8-.5 0-.9-.4-.9-.8 0-.5.7-.9 1.5-.9s1.2.4.9.9zm162.9.3c.4.8.3 1.6-.1 1.9-.4.3-.9-.4-.9-1.5-.2-2.3.3-2.5 1-.4zm-209.1 7.8c-.7.8-.8 1.8-.4 2.2.4.5.1.5-.5.1-1-.5-1-1.1-.1-2.6.7-1.1 1.4-1.7 1.7-1.5.2.3-.1 1.1-.7 1.8zM233 222c0 .5-.2 1-.4 1-.3 0-.8-.5-1.1-1-.3-.6-.1-1 .4-1 .6 0 1.1.4 1.1 1zm-210 2c0 .5-.2 1-.4 1-.3 0-.8-.5-1.1-1-.3-.6-.1-1 .4-1 .6 0 1.1.4 1.1 1zm135.8 10.8c.2.7.8 1 1.3.6.5-.3.9 0 .9.5 0 1.6-2 1.3-2.6-.4-.4-.8-1-1.3-1.4-1-.5.3-1.1.1-1.4-.4-.4-.5.2-.8 1.1-.7.9.2 1.9.8 2.1 1.4zm68.7 5.1c.3.5.2 1.2-.3 1.5-.5.3-.9-.1-.9-.9 0-1.7.3-1.9 1.2-.6zm-106.7 1.7c-.1.5-.9.9-1.6 1-1 .2-1.1-.1-.1-1.2 1.2-1.4 2.4-1.3 1.7.2zm7.9-1c-.3.3-1.2.4-1.9.1-.8-.3-.5-.6.6-.6 1.1-.1 1.7.2 1.3.5zm96.3.8c0 .2-.7.7-1.6 1-.8.3-1.2.2-.9-.4.6-1 2.5-1.4 2.5-.6zm-135.6 2.2c.3.8.2 1.2-.4.9-.6-.3-1-1-1-1.6 0-1.4.7-1.1 1.4.7zm78.1.4c.3.6-.1.7-.9.4-1.8-.7-2.1-1.4-.7-1.4.6 0 1.3.4 1.6 1zm-131.7 4.5c-.3.3-.9-.2-1.2-1.2-.6-1.4-.5-1.5.5-.6.7.7 1 1.5.7 1.8zM219 248c0 .5-.5 1-1.1 1-.5 0-.7-.5-.4-1 .3-.6.8-1 1.1-1 .2 0 .4.4.4 1zm-41.5 2.8c-.3.3-1.1 0-1.8-.7-.9-1-.8-1.1.6-.5 1 .3 1.5.9 1.2 1.2zM46 252c.8.5 1.1 1 .5 1-.5 0-1.7-.5-2.5-1s-1-1-.5-1c.6 0 1.7.5 2.5 1zm33-.6c0 .3-.4.8-1 1.1-.5.3-1 .1-1-.4 0-.6.5-1.1 1-1.1.6 0 1 .2 1 .4zm136 .6c0 .5-.2 1-.4 1-.3 0-.8-.5-1.1-1-.3-.6-.1-1 .4-1 .6 0 1.1.4 1.1 1zm-6 1.9c0 .5-.7 1.1-1.4 1.4-1 .4-1.3.1-.9-.9.6-1.5 2.3-1.9 2.3-.5zm-8.5 2.1c.3.5.1 1-.4 1-.6 0-1.1-.5-1.1-1 0-.6.2-1 .4-1 .3 0 .8.4 1.1 1z"/><path d="M170 1c-.8.5-1.2 1.1-1 1.4.3.2 1.4-.2 2.4-1 2.2-1.5 1-1.9-1.4-.4zM93.7 2.1c.7.7 1.5 1 1.8.7.3-.3-.2-.9-1.2-1.2-1.4-.6-1.5-.5-.6.5zm81 .2c-.3.8 0 1.4.7 1.4s1.3-.6 1.3-1.4c0-.7-.4-1.3-.8-1.3s-.9.6-1.2 1.3zM72.7 4c-.9 1.1-1.3 2-.7 2 .5 0 1.4-.9 2-2 .6-1.1.9-2 .8-2-.2 0-1.1.9-2.1 2zm60.8 12c-.3.5-.1 1 .4 1 .6 0 1.1-.5 1.1-1 0-.6-.2-1-.4-1-.3 0-.8.4-1.1 1zm61 3c2 2.2 3.5 2.6 3.5.9 0-.5-.5-.7-1-.4-.6.3-1.3-.1-1.6-.9-.3-.9-1.1-1.6-1.7-1.6-.5 0-.2.9.8 2zM59 23.6c0 .8.5 1.2 1 .9.6-.4.8-1.1.5-1.6-.9-1.4-1.5-1.1-1.5.7zm-2.3 4.5c.7.7 1.5 1 1.8.7.3-.3-.2-.9-1.2-1.2-1.4-.6-1.5-.5-.6.5zm139.2 14.6c-1.3 1.6-1.2 1.7.4.4 1.6-1.3 2.1-2.1 1.3-2.1-.2 0-1 .8-1.7 1.7zm-3.5 2.5c-.4.7-.4 1 .1.6.4-.4 1.5-.2 2.4.5 1.4 1.1 1.4 1 .2-.6-1.6-2-1.8-2.1-2.7-.5zM188 52c-.9.6-1 1-.3 1 .6 0 1.5-.5 1.8-1 .8-1.2.4-1.2-1.5 0zm-8 10c-.9.6-1 1-.3 1 .6 0 1.5-.5 1.8-1 .8-1.2.4-1.2-1.5 0zm.2 16.5c.4.4.3 1.4-.3 2.2-.7.8-.8 1.3-.1 1.3 1.5 0 2.3-2.8.9-3.6-.7-.4-.9-.4-.5.1zm-6.2 21c-.7.9-.8 1.5-.2 1.5.5 0 1.2-.7 1.6-1.5.3-.8.4-1.5.2-1.5s-.9.7-1.6 1.5zm-95 .5c0 .5.5 1 1 1 .6 0 1-.5 1-1 0-.6-.4-1-1-1-.5 0-1 .4-1 1zm123 2.8c0 .7-.3 1.1-.7 1-1.4-.2-4.3 1.4-4.3 2.4 0 .7.5.6 1.3-.1.8-.6 1.6-.9 1.9-.6.3.3 1.1-.1 1.8-1s1-1.8.6-2.2c-.3-.3-.6-.1-.6.5zm-145.4 3.7c.4.8.8 1.5 1 1.5.2 0 .4-.7.4-1.5s-.4-1.5-1-1.5c-.5 0-.7.7-.4 1.5zm110.8 2.2c.3.6-.2 1.6-1.1 2.2-1.5.8-1.6 1.2-.4 2.3.8.8 1.1.8.7.1-.3-.6.2-1.6 1.1-2.2 1.5-.8 1.6-1.2.4-2.3-.8-.8-1.1-.8-.7-.1zm-81.5 2c-1.3 1.6-1.2 1.7.4.4.9-.7 1.7-1.5 1.7-1.7 0-.8-.8-.3-2.1 1.3zm132.7.8c.9 1.4 1.8 2.5 2 2.5.2 0-.2-1.1-.8-2.5-.6-1.4-1.5-2.5-2-2.5s-.1 1.1.8 2.5zM34 111.1c0 .5-.5.7-1.2.3-.6-.4-.8-.3-.4.4.3.5 0 1.3-.6 1.5-.8.3-.8.6-.2.6.6.1 1.9-.8 2.9-1.9 1-1.1 1.3-2 .7-2-.7 0-1.2.5-1.2 1.1zm187.5.9c.3.5.8 1 1.1 1 .2 0 .4-.5.4-1 0-.6-.5-1-1.1-1-.5 0-.7.4-.4 1zm1.8 5.5c0 .8.4 1.5.9 1.5.4 0 .8-.4.8-.9 0-.6-.4-1.2-.8-1.5-.5-.3-.9.1-.9.9zm-60.1 2.4c-1.1.7-1.1.9 0 1.4.9.3 1.5-.1 1.5-.9s-.1-1.4-.1-1.4c-.1 0-.7.4-1.4.9zm-135.6 2.8c-.6 1.4-.5 1.5.5.6.7-.7 1-1.5.7-1.8-.3-.3-.9.2-1.2 1.2zm140.5 3.9c0 1.1.3 1.4.6.6.3-.7.2-1.6-.1-1.9-.3-.4-.6.2-.5 1.3zm-136.9 8.3c-1.1.7-1.1.9 0 1.4.9.3 1.5-.1 1.5-.9s-.1-1.4-.1-1.4c-.1 0-.7.4-1.4.9zm164.8 28c0 .6.4 1.3 1 1.6.6.3.7-.1.4-.9-.7-1.8-1.4-2.1-1.4-.7zm-135.4 2.3c.3.5 1 .6 1.5.3 1.3-.9 1.1-1.2-.6-1.2-.8 0-1.2.4-.9.9zm3.3 6.6c.9.7 1 1.1.2 1.5-.7.4-.8.5 0 .3 1.5-.2 1.3-2-.3-2.4-1-.3-1-.2.1.6zm123.6.1c-.3.5-.2 1.2.3 1.5.5.3.9-.1.9-.9 0-1.7-.3-1.9-1.2-.6zM64.2 183.6c1 1 2 1.5 2.4 1.2.3-.4-.5-1.2-1.8-1.8-2.2-1.2-2.2-1.2-.6.6zm-.4 2.6c1 1.3 1 1.7 0 2.1-.9.4-.9.6-.1.6 2 .2 2.4-1.6.5-3-1.5-1.3-1.6-1.2-.4.3zM67 198c0 .5.5 1 1.1 1 .5 0 .7-.5.4-1-.3-.6-.8-1-1.1-1-.2 0-.4.4-.4 1zm-20 1.2c0 .4.4.8.9.8.6 0 1.2-.4 1.5-.8.3-.5-.1-.9-.9-.9s-1.5.4-1.5.9zm21.6 3.6c-.3.6-.1 1.4.5 1.7 1.5 1 2.5-.3 1.2-1.6-.7-.7-1.3-.7-1.7-.1zm128.4 1.1c0 .7-.5.9-1.2.5-.7-.5-.8-.3-.3.5.5.9 1 1 1.8.2.6-.6.8-1.4.4-1.8-.4-.3-.7-.1-.7.6zm-134.4 3.3c.3.5 1 .6 1.5.3 1.3-.9 1.1-1.2-.6-1.2-.8 0-1.2.4-.9.9zm124 2.6c-.3.5.1.9.9.9s1.5-.4 1.5-.9c0-.4-.4-.8-.9-.8-.6 0-1.2.4-1.5.8zM21.3 229.2c.1.7.8 1.9 1.5 2.6.7.8 1 1.8.7 2.3-.4.5.1.9.9.9 1.3 0 1.2-.6-.5-3.5-2.2-3.6-3.1-4.4-2.6-2.3zm2.3 8.1c.3 1 .9 1.5 1.2 1.2.3-.3 0-1.1-.7-1.8-1-.9-1.1-.8-.5.6zm79.4.7c0 .5.5 1 1.1 1 .5 0 .7.5.3 1.2-.4.7-.3.8.5.4.9-.6.9-1.1 0-2.2-1.4-1.7-1.9-1.8-1.9-.4zm122 8.1c0 .5.5.7 1 .4.6-.3 1-.8 1-1.1 0-.2-.4-.4-1-.4-.5 0-1 .5-1 1.1zM37 250c0 .5.5 1 1.1 1 .5 0 .7-.5.4-1-.3-.6-.8-1-1.1-1-.2 0-.4.4-.4 1zm143.2 5.6c1 1 2 1.5 2.4 1.2.3-.4-.5-1.2-1.8-1.8-2.2-1.2-2.2-1.2-.6.6zm-134.9.9c0 .8.4 1.2.9.9.4-.3.8-.9.8-1.5 0-.5-.4-.9-.8-.9-.5 0-.9.7-.9 1.5zm142.1 1c.1 2.2.2 2.3 1.3.9 1.2-1.7.9-3.4-.7-3.4-.4 0-.7 1.1-.6 2.5zm-134.8-.2c.3 1 .9 1.5 1.2 1.2.3-.3 0-1.1-.7-1.8-1-.9-1.1-.8-.5.6zm12.9-.3c-.3.5-.1 1 .4 1 .6 0 1.1-.5 1.1-1 0-.6-.2-1-.4-1-.3 0-.8.4-1.1 1zm138 0c-.3.5-.1 1 .4 1 .6 0 1.1-.5 1.1-1 0-.6-.2-1-.4-1-.3 0-.8.4-1.1 1zM55 258.2c0 .4.4.8.9.8.6 0 1.2-.4 1.5-.8.3-.5-.1-.9-.9-.9s-1.5.4-1.5.9z"/></svg>