<?xml version="1.0" standalone="no"?>
<!DOCTYPE svg PUBLIC "-//W3C//DTD SVG 20010904//EN"
 "http://www.w3.org/TR/2001/REC-SVG-20010904/DTD/svg10.dtd">
<svg version="1.0" xmlns="http://www.w3.org/2000/svg"
 width="260.000000pt" height="260.000000pt" viewBox="0 0 260.000000 260.000000"
 preserveAspectRatio="xMidYMid meet">
<metadata>
Created by potrace 1.11, written by Peter Selinger 2001-2013
</metadata>
<g transform="translate(0.000000,260.000000) scale(0.100000,-0.100000)"
fill="#000000" stroke="none">
<path d="M845 2590 c-3 -5 -4 -14 0 -19 3 -5 0 -13 -6 -17 -8 -4 -9 -3 -5 4 5
8 0 12 -13 12 -10 0 -22 6 -25 13 -3 6 -3 -1 -1 -18 4 -28 3 -29 -10 -11 -8
11 -15 14 -15 7 0 -7 -4 -9 -10 -6 -5 3 -10 2 -10 -4 0 -5 6 -12 13 -15 8 -4
7 -5 -3 -5 -32 2 -41 -1 -34 -13 6 -10 4 -10 -7 0 -18 16 -29 15 -29 -4 0 -9
5 -12 13 -8 7 4 9 3 4 -2 -5 -5 -14 -9 -20 -9 -7 -1 -11 -7 -9 -14 1 -7 -2
-10 -8 -6 -8 5 -8 11 0 20 7 9 6 16 -7 26 -16 13 -17 12 -4 -3 9 -12 10 -18 2
-18 -6 0 -11 -12 -11 -27 0 -22 -2 -25 -10 -13 -8 13 -10 12 -11 -5 -1 -11 -1
-31 -1 -45 1 -19 -1 -21 -8 -10 -13 21 -23 5 -11 -18 14 -26 -8 -48 -28 -29
-11 10 -11 8 -1 -11 7 -16 17 -22 28 -18 15 5 14 4 -1 -8 -20 -16 -19 -35 3
-54 13 -11 11 -11 -8 -2 -12 6 -20 15 -17 20 3 5 1 11 -4 15 -17 10 -2 -39 16
-52 15 -12 15 -13 1 -13 -9 0 -20 -5 -24 -11 -4 -7 0 -9 14 -5 12 4 23 2 28
-5 4 -7 3 -9 -2 -6 -6 3 -16 -3 -23 -15 -10 -16 -10 -19 1 -12 26 16 45 11 40
-10 -3 -11 -7 -15 -10 -8 -2 6 -8 12 -14 12 -7 0 -6 -5 2 -14 6 -8 18 -12 26
-9 8 3 14 0 14 -7 0 -6 4 -8 10 -5 6 4 7 -1 3 -11 -4 -11 -8 -13 -11 -6 -5 16
-19 15 -19 -2 0 -7 7 -13 16 -13 34 0 41 -3 41 -18 0 -8 7 -15 16 -15 9 0 12
-5 8 -12 -4 -7 3 -4 16 7 l23 20 -12 -23 c-11 -21 -10 -22 13 -18 14 3 29 0
32 -6 4 -6 2 -8 -4 -4 -6 3 -13 2 -17 -4 -4 -6 -11 -8 -16 -4 -5 3 -8 0 -7 -8
2 -7 -4 -12 -12 -10 -11 3 -10 -2 4 -17 24 -26 26 -26 21 -1 -2 11 0 18 5 15
12 -8 4 -40 -10 -37 -8 2 -9 -5 -4 -20 6 -19 4 -21 -8 -13 -7 6 -5 1 7 -9 15
-15 16 -18 3 -13 -9 3 -19 0 -22 -8 -3 -8 0 -12 7 -9 8 3 13 -4 13 -15 0 -11
-4 -17 -8 -14 -5 2 -7 -7 -4 -21 2 -14 -1 -27 -7 -30 -8 -3 -8 -5 1 -5 7 -1
21 -9 30 -18 16 -16 16 -16 0 -11 -9 4 -19 1 -22 -7 -3 -9 0 -12 10 -8 12 4
13 1 5 -20 -8 -21 -7 -25 5 -20 10 4 12 0 8 -10 -3 -10 -12 -13 -22 -10 -9 4
-15 4 -12 2 39 -33 53 -42 42 -27 -11 13 -11 18 0 24 7 4 10 4 6 -1 -4 -4 -3
-14 3 -22 6 -7 8 -13 4 -13 -4 0 -2 -6 4 -14 9 -11 9 -16 0 -22 -7 -4 -9 -3
-6 2 3 6 -3 16 -14 22 -19 12 -19 12 -4 -12 10 -14 22 -23 31 -19 8 3 14 0 14
-7 0 -6 5 -8 12 -4 7 4 8 3 4 -5 -10 -16 3 -53 16 -45 7 5 8 2 3 -6 -6 -10
-11 -9 -22 5 -7 11 -13 14 -13 8 0 -14 27 -36 38 -30 4 3 14 1 22 -5 12 -8 12
-9 -2 -4 -12 3 -18 0 -18 -10 0 -9 7 -14 17 -12 12 2 18 -4 19 -21 1 -13 5
-26 10 -30 12 -8 11 -34 -1 -43 -6 -5 -5 -8 3 -8 6 0 12 -7 12 -15 0 -8 -5
-15 -11 -15 -5 0 -7 5 -3 12 4 7 3 8 -5 4 -6 -4 -9 -11 -6 -16 3 -5 1 -11 -5
-15 -6 -4 -7 -12 -3 -18 3 -7 -3 -4 -14 6 -16 14 -20 14 -20 2 0 -8 4 -12 9
-9 4 3 8 0 8 -5 0 -6 -7 -11 -15 -11 -8 0 -15 5 -15 12 0 6 -2 9 -5 6 -10 -10
7 -38 19 -31 6 3 8 2 3 -2 -15 -17 -62 -12 -78 8 -12 15 -18 17 -24 7 -6 -9
-4 -11 5 -5 9 5 11 4 6 -4 -4 -6 -11 -9 -16 -6 -10 6 -8 24 4 45 5 8 -2 5 -15
-7 -23 -21 -25 -21 -25 -3 0 10 3 18 7 17 6 -2 9 4 9 18 0 3 -8 1 -18 -4 -14
-7 -19 -6 -19 4 0 8 4 12 9 9 4 -3 8 0 8 5 0 18 -28 12 -32 -6 -3 -15 -5 -14
-10 5 -3 12 -2 20 2 17 5 -3 11 -1 15 5 3 5 -1 10 -9 10 -9 0 -16 7 -16 16 0
8 5 12 10 9 6 -3 10 -1 10 5 0 7 -8 9 -20 5 -14 -5 -20 -2 -20 10 0 10 5 14
13 10 6 -4 2 2 -10 13 -12 11 -19 23 -15 27 4 5 2 5 -5 2 -6 -4 -14 -1 -16 5
-4 9 -6 10 -6 1 -1 -6 9 -19 21 -27 12 -9 17 -16 10 -16 -6 0 -15 0 -19 0 -5
0 -8 6 -8 13 0 6 -4 12 -10 13 -19 1 -45 16 -41 23 2 3 -3 13 -12 21 -14 13
-15 13 -10 -1 4 -11 0 -15 -13 -14 -10 1 -22 5 -26 10 -5 4 -3 5 4 1 6 -3 14
-2 17 3 4 5 -2 8 -11 7 -10 -2 -22 2 -26 8 -5 6 -6 2 -2 -11 3 -12 1 -25 -6
-29 -8 -4 -9 -3 -5 4 4 7 2 12 -4 12 -6 0 -8 5 -4 12 5 7 3 8 -5 4 -7 -5 -10
-15 -6 -24 3 -9 3 -13 -1 -9 -4 4 -18 0 -30 -8 -21 -13 -24 -13 -32 1 -8 15
-10 15 -15 0 -4 -10 -3 -15 3 -11 6 3 10 2 10 -4 0 -5 3 -18 6 -28 5 -14 4
-15 -4 -4 -8 11 -12 10 -23 -8 -8 -11 -19 -21 -26 -21 -7 0 -13 -3 -14 -7 0
-5 -3 -21 -5 -36 -3 -17 -1 -26 5 -23 5 4 13 2 16 -4 4 -6 3 -9 -2 -8 -4 2
-19 -5 -33 -15 -28 -19 -20 -23 13 -6 21 12 21 11 4 -8 -19 -22 -22 -33 -6
-33 5 0 7 6 3 13 -5 8 -2 8 9 -2 18 -15 23 -26 7 -16 -5 3 -10 1 -10 -5 0 -6
-5 -8 -12 -4 -10 6 -10 5 -1 -8 7 -8 10 -17 7 -20 -3 -3 1 -5 10 -5 8 1 15 -2
16 -8 1 -5 7 -16 13 -24 9 -11 9 -13 1 -8 -7 4 -16 1 -22 -6 -9 -10 -3 -12 24
-12 19 1 34 0 34 -1 0 -2 -12 -10 -27 -19 -23 -13 -24 -15 -6 -10 19 5 22 3
16 -12 -5 -14 -4 -16 8 -8 8 6 7 3 -3 -6 -16 -16 -16 -16 7 -16 14 0 22 4 18
10 -3 6 -1 7 5 3 9 -5 7 -15 -5 -34 -17 -27 -17 -27 2 -12 11 8 23 20 27 25 5
7 8 6 8 0 0 -6 -5 -16 -12 -23 -9 -9 -8 -12 8 -13 10 -1 23 -1 27 0 5 1 6 -3
2 -9 -3 -5 -1 -10 5 -10 6 0 8 -5 5 -11 -5 -6 -12 -4 -20 8 -7 10 -17 15 -21
10 -4 -4 -2 -7 5 -7 7 0 10 -3 8 -8 -3 -4 1 -13 9 -20 8 -7 14 -8 14 -2 0 5 5
10 11 10 5 0 7 -4 4 -10 -3 -5 0 -10 7 -10 9 0 9 -3 -2 -10 -9 -6 -10 -10 -3
-10 6 0 14 4 18 10 7 11 35 2 35 -12 0 -7 -5 -6 -13 1 -10 8 -14 7 -14 -2 0
-7 12 -14 26 -15 14 -1 28 -7 29 -13 3 -6 10 -5 20 3 13 11 15 10 9 -5 -5 -14
-2 -16 17 -13 12 2 29 0 37 -5 10 -6 10 -9 2 -9 -7 0 -13 -7 -13 -16 0 -14 2
-15 18 -3 13 10 12 8 -3 -10 -11 -14 -14 -21 -7 -17 6 4 12 2 12 -4 0 -6 4 -9
9 -6 10 7 9 -20 -2 -30 -3 -4 -2 -15 4 -26 13 -24 3 -37 -14 -18 -9 10 -9 11
0 6 9 -5 11 -2 7 9 -7 17 -14 15 -18 -7 -1 -7 -6 -20 -10 -28 -5 -8 -6 -12 -1
-8 4 4 15 2 23 -5 13 -10 14 -9 7 2 -5 10 -4 12 4 7 6 -4 9 -11 6 -16 -3 -5
-1 -11 5 -15 6 -4 7 -12 3 -18 -4 -6 -8 -18 -9 -27 -1 -8 -5 -26 -8 -40 -6
-25 -6 -25 4 -2 10 23 30 22 30 -1 0 -7 -4 -6 -10 3 -8 13 -10 13 -10 -2 0 -9
8 -19 18 -21 13 -4 12 -5 -5 -6 -12 0 -24 -5 -27 -10 -3 -4 9 -7 27 -5 17 1
26 0 19 -3 -10 -4 -10 -8 0 -21 8 -10 9 -13 1 -9 -6 4 -14 3 -18 -3 -3 -5 0
-10 7 -10 7 0 19 -9 25 -19 11 -17 9 -21 -9 -27 -16 -5 -18 -8 -7 -15 15 -9 9
-19 -15 -23 -9 -1 -23 -11 -31 -22 -15 -19 -15 -19 -8 1 3 11 11 27 17 35 10
13 9 13 -8 0 -16 -13 -20 -12 -37 9 -10 13 -16 27 -13 32 3 5 0 9 -6 9 -7 0
-10 -7 -7 -14 4 -10 1 -13 -9 -9 -8 3 -13 12 -10 19 7 18 -9 27 -35 19 -17 -6
-18 -9 -7 -23 9 -12 7 -12 -9 2 -13 10 -20 23 -17 27 8 14 16 10 8 -3 -5 -10
-4 -10 6 -1 22 20 6 24 -33 8 -34 -14 -36 -14 -32 5 2 11 -1 23 -7 26 -7 4 -8
2 -4 -4 4 -7 1 -12 -9 -12 -10 0 -13 5 -9 12 6 10 4 10 -8 0 -9 -7 -20 -12
-24 -11 -28 5 -36 -1 -24 -16 11 -13 10 -14 -4 -9 -9 3 -16 10 -16 14 0 5 -9
8 -19 7 -11 0 -17 -5 -15 -9 3 -5 10 -6 15 -3 5 3 6 -1 3 -10 -4 -9 -11 -12
-18 -7 -13 10 -36 10 -36 0 0 -5 0 -11 0 -14 0 -4 8 0 18 7 15 12 16 12 5 -2
-10 -12 -10 -18 0 -29 6 -7 -1 -4 -18 6 -16 11 -26 13 -22 7 5 -8 3 -13 -3
-13 -6 0 -8 -5 -5 -10 4 -6 12 -7 18 -3 7 4 6 -1 -2 -10 -11 -14 -17 -15 -30
-5 -9 7 -13 9 -9 4 4 -5 2 -18 -4 -30 -11 -20 -10 -20 8 -6 18 14 18 14 3 -5
-25 -31 -43 -111 -27 -121 4 -3 5 -10 2 -16 -5 -7 -1 -9 9 -5 9 3 19 1 23 -5
5 -7 2 -8 -6 -3 -10 6 -12 4 -7 -9 4 -10 7 -20 7 -23 0 -3 8 1 18 8 15 13 16
12 4 -3 -8 -10 -10 -23 -6 -30 8 -13 13 -36 16 -75 1 -12 6 -19 10 -17 4 3 8
-2 8 -10 0 -9 5 -16 11 -16 5 0 7 -5 3 -12 -4 -7 -3 -8 5 -4 8 5 6 15 -9 36
-15 21 -17 31 -9 36 8 4 9 3 5 -4 -4 -7 -2 -12 3 -12 6 0 11 -7 11 -16 0 -9 5
-12 13 -8 6 4 9 4 5 -1 -4 -4 -1 -20 7 -35 8 -15 13 -29 12 -32 -1 -2 5 4 14
14 16 17 17 17 25 0 4 -9 6 -23 5 -29 -1 -7 3 -13 9 -13 5 0 10 8 10 18 1 12
4 10 13 -8 8 -17 21 -26 41 -27 16 -1 33 -7 36 -14 6 -8 9 -7 12 2 4 11 8 11
19 2 20 -16 31 -17 40 -1 5 8 9 9 9 2 0 -7 12 -20 28 -29 l27 -18 -25 29 c-14
16 -18 23 -10 17 18 -16 34 -17 24 -1 -4 7 -3 8 5 4 6 -4 8 -13 4 -19 -3 -7 3
-3 15 7 12 11 22 15 22 10 0 -5 7 0 15 10 8 11 15 15 15 10 0 -6 -5 -15 -10
-20 -7 -7 -6 -11 5 -11 8 0 15 6 15 14 0 11 4 11 23 2 l22 -12 -20 24 c-11 13
-13 19 -6 12 7 -6 20 -9 29 -6 9 4 13 2 9 -4 -5 -8 1 -7 18 0 14 7 23 17 21
24 -3 7 5 10 22 8 15 -2 21 -2 15 1 -15 7 -17 30 -3 39 5 3 7 0 4 -8 -3 -8 2
-17 10 -20 11 -4 13 -1 9 10 -5 12 -3 14 8 8 10 -7 8 -1 -4 18 -18 27 -18 28
3 15 11 -7 20 -17 20 -23 0 -5 5 -2 11 8 6 9 15 14 21 11 7 -4 8 -2 4 5 -4 6
-11 9 -15 7 -4 -3 -8 1 -8 9 0 8 3 14 6 13 22 -2 41 4 41 13 0 5 -6 7 -12 4
-7 -4 -6 -1 3 7 9 7 17 18 18 23 2 6 5 12 8 15 4 3 3 -1 -1 -7 -6 -12 4 -16
30 -12 4 0 11 -5 16 -13 8 -10 9 -10 5 2 -2 8 -9 15 -14 15 -6 0 -14 3 -17 8
-3 4 -3 5 0 2 4 -2 15 0 25 6 15 8 17 6 12 -7 -4 -11 -3 -15 5 -10 6 3 13 2
17 -4 4 -6 11 -8 16 -5 5 4 9 -4 10 -17 0 -13 3 -17 6 -10 2 6 9 12 15 12 6 0
8 -6 5 -14 -4 -11 0 -13 16 -10 46 10 66 11 61 2 -3 -5 -12 -7 -20 -4 -18 7
-29 -13 -15 -27 9 -9 11 -8 5 6 -5 15 -3 16 17 9 13 -4 31 -8 39 -7 21 2 41
-15 33 -28 -4 -6 -1 -7 6 -2 9 5 10 10 2 18 -6 6 -11 18 -11 26 1 13 3 12 11
-2 9 -15 13 -16 27 -5 9 7 13 8 9 2 -4 -7 -1 -14 7 -17 8 -3 13 1 12 11 0 9 5
16 13 14 7 -1 20 3 29 10 13 11 14 10 4 -9 -8 -14 -9 -24 -2 -28 10 -6 11 -5
14 17 0 6 7 13 15 16 9 3 11 0 6 -8 -5 -8 -3 -11 6 -8 8 3 13 10 12 16 -2 7 8
8 28 2 26 -8 29 -7 19 5 -10 12 -9 15 4 15 9 0 16 -6 16 -12 0 -9 4 -8 10 2 9
13 11 13 21 0 9 -13 10 -13 6 0 -2 8 -12 14 -22 13 -11 -1 -14 2 -7 9 7 7 18
6 33 -3 24 -12 24 -12 5 10 -11 11 -14 21 -8 21 7 0 12 -4 12 -10 0 -5 5 -10
11 -10 6 0 9 7 6 14 -4 10 -1 13 9 9 17 -6 18 -15 3 -30 -8 -8 -7 -13 3 -18 7
-5 10 -5 6 0 -4 4 -3 14 3 21 13 16 50 1 45 -19 -1 -6 -1 -9 2 -4 2 4 13 12
25 19 22 11 22 11 3 -11 -19 -21 -19 -21 0 -22 10 -1 26 -1 34 0 13 2 13 1 0
-8 -8 -5 -17 -8 -20 -6 -4 2 -7 -2 -7 -10 0 -8 4 -12 8 -9 4 2 14 -2 22 -10 8
-8 18 -11 23 -6 5 4 18 4 29 -1 18 -9 18 -9 -2 -5 -13 2 -23 0 -23 -5 0 -5 4
-9 10 -9 5 0 7 -8 3 -18 -5 -15 -4 -14 9 2 12 15 17 16 23 6 5 -9 4 -11 -3 -6
-7 4 -12 5 -12 2 0 -11 62 -37 76 -32 8 3 14 1 14 -5 0 -6 10 -8 23 -4 15 4
18 3 9 -3 -11 -7 -11 -10 3 -15 9 -4 18 -1 21 8 5 12 9 12 29 -1 13 -9 27 -15
30 -14 4 1 10 -2 13 -6 4 -4 2 -4 -5 0 -16 9 -28 -13 -14 -27 9 -9 11 -8 6 3
-4 12 2 16 30 16 19 0 35 -5 35 -10 0 -5 3 -6 7 -3 3 4 13 1 21 -6 13 -10 14
-9 7 3 -5 8 -10 23 -10 32 -1 14 1 15 12 7 7 -6 13 -8 13 -4 0 4 6 3 13 -3 8
-7 18 -7 27 -2 8 5 18 6 22 4 5 -3 11 2 14 10 3 9 11 16 16 16 6 0 8 -7 5 -15
-4 -8 -1 -17 5 -21 6 -4 8 -3 5 2 -8 13 9 39 25 39 7 1 12 6 10 13 -2 11 11
16 31 13 4 -1 2 9 -4 21 -12 22 -11 22 6 8 10 -8 16 -10 13 -4 -4 5 9 23 27
39 19 15 32 32 29 36 -3 5 -1 9 4 9 5 0 8 11 7 24 -3 19 1 23 13 18 15 -5 16
-4 2 13 -11 14 -11 17 -1 11 10 -7 12 -3 6 13 -4 13 -2 21 5 21 6 0 9 -4 6 -8
-2 -4 0 -14 6 -22 8 -12 9 -12 5 2 -3 9 -1 19 6 22 8 3 8 5 -2 5 -11 1 -11 4
-1 16 15 18 -1 20 -19 3 -8 -7 -6 -1 4 15 9 15 19 27 22 27 2 0 1 -4 -2 -10
-3 -6 -1 -10 4 -10 13 0 14 10 1 30 -6 10 -4 21 8 35 14 16 14 17 1 7 -16 -12
-29 -7 -29 10 0 5 5 6 10 3 6 -3 10 -1 10 4 0 6 -4 11 -10 11 -5 0 -10 5 -10
11 0 5 5 7 11 3 6 -3 4 5 -5 18 -9 14 -13 28 -9 33 5 4 2 5 -4 1 -14 -8 -17 4
-5 20 4 5 3 6 -3 2 -5 -5 -18 -8 -30 -7 -20 0 -20 0 0 9 11 5 14 9 7 9 -7 1
-11 5 -8 10 3 5 -1 11 -9 14 -9 4 -12 1 -9 -7 3 -8 0 -17 -7 -22 -8 -4 -10 -3
-5 4 4 7 2 20 -3 29 -6 10 -11 14 -11 10 0 -5 -7 -1 -16 7 -8 9 -20 16 -27 16
-6 0 -2 -7 9 -16 18 -15 18 -15 -2 -5 -12 6 -25 7 -29 3 -4 -4 -5 1 -3 10 1 9
-1 17 -7 17 -5 1 -10 -3 -10 -8 0 -5 -4 -13 -9 -18 -5 -4 -6 -3 -2 4 3 6 2 14
-4 18 -9 6 -14 -8 -11 -28 1 -5 -3 -6 -9 -2 -6 3 -8 11 -5 16 4 5 2 9 -4 9 -5
0 -12 -8 -14 -18 -4 -15 -5 -15 -6 -1 0 9 -8 20 -17 23 -8 3 -13 2 -10 -3 8
-13 -21 -34 -35 -25 -9 5 -10 2 -6 -9 3 -9 1 -19 -5 -23 -7 -4 -8 -3 -4 4 4 7
3 12 -3 12 -6 0 -8 8 -5 18 5 15 4 15 -6 -1 -7 -10 -9 -21 -6 -24 3 -4 -3 -13
-14 -20 -16 -11 -24 -12 -35 -3 -10 8 -15 8 -21 -1 -4 -7 -3 -9 3 -6 6 4 13
-2 16 -14 5 -17 3 -18 -10 -7 -9 7 -19 13 -22 13 -3 0 -5 4 -3 8 1 5 -2 5 -9
2 -7 -5 -3 -16 13 -33 13 -14 17 -22 11 -18 -8 4 -13 2 -13 -6 0 -10 -2 -10
-9 1 -7 11 -9 11 -14 0 -4 -11 -6 -11 -6 -1 -1 7 -5 11 -10 7 -12 -7 -33 29
-23 40 4 5 1 5 -6 1 -7 -4 -10 -12 -7 -17 3 -5 -1 -6 -10 -2 -9 3 -13 9 -8 12
4 3 15 15 23 26 14 20 14 20 -6 2 -21 -17 -21 -17 -20 12 1 22 4 27 14 19 7
-6 15 -8 19 -4 3 3 2 6 -4 6 -6 0 -13 7 -17 15 -3 9 0 15 10 15 9 0 12 -5 8
-12 -4 -7 -3 -8 4 -4 6 4 9 13 6 21 -4 8 -9 13 -13 10 -4 -2 -8 2 -8 10 0 8 4
12 9 9 4 -3 8 2 8 10 0 9 -5 16 -12 16 -6 0 -8 3 -5 6 4 4 13 1 21 -5 11 -9
16 -9 22 0 4 8 3 9 -4 5 -7 -4 -12 -3 -12 3 0 5 8 15 18 20 9 6 11 11 5 11
-17 0 -17 27 0 33 9 4 8 6 -2 6 -11 1 -10 6 3 26 14 21 14 24 1 19 -8 -4 -15
-11 -15 -18 0 -6 -5 -4 -10 4 -5 8 -10 20 -10 25 0 6 4 4 9 -3 6 -10 10 -10
20 2 9 11 9 16 0 22 -8 4 -9 3 -5 -4 11 -18 0 -14 -15 5 -12 14 -12 16 0 8 11
-6 13 -2 9 19 -4 19 2 34 20 54 14 15 30 26 35 24 5 -1 5 3 1 9 -5 9 -2 10 10
6 9 -4 15 -3 12 1 -2 4 -1 14 4 22 10 17 43 23 34 7 -5 -8 -3 -8 6 0 11 10 16
9 27 -5 11 -13 11 -10 -1 14 l-14 30 29 -2 c17 -1 26 2 23 8 -4 6 2 8 17 3 19
-5 21 -4 9 4 -8 6 -11 11 -6 11 5 0 2 8 -5 18 -12 15 -11 15 8 -1 16 -14 23
-15 29 -6 5 8 3 10 -6 4 -8 -5 -11 -3 -9 4 3 7 7 11 10 9 3 -2 14 4 24 12 17
14 18 13 11 -5 -4 -11 -3 -16 1 -11 4 4 9 23 9 42 2 43 9 51 31 33 9 -8 14 -9
10 -2 -4 6 0 18 8 26 16 16 21 32 7 23 -4 -2 -14 5 -22 17 -12 20 -12 21 4 8
9 -8 20 -11 23 -7 4 4 1 11 -7 16 -10 7 -11 10 -2 10 6 0 12 5 12 11 0 5 -6 7
-12 3 -7 -4 -9 -3 -5 1 4 5 14 10 22 11 11 2 12 -2 5 -16 -7 -13 -7 -21 0 -25
6 -4 10 -3 9 2 -4 21 2 34 14 28 6 -4 1 4 -13 16 -24 22 -25 22 -2 16 26 -6
28 -1 7 19 -17 18 -20 34 -4 34 5 0 8 -4 4 -9 -3 -5 -1 -13 5 -16 6 -4 10 -3
9 2 -4 22 2 34 14 27 8 -5 8 -2 -2 9 -7 9 -10 17 -5 17 4 0 3 5 -3 11 -6 6
-17 8 -24 4 -9 -6 -7 -11 6 -22 11 -7 14 -13 8 -13 -6 0 -16 6 -22 14 -9 11
-8 17 4 29 8 9 11 18 6 21 -5 4 -8 18 -6 32 1 17 -2 24 -11 20 -7 -3 -25 11
-40 31 -15 20 -22 33 -16 29 7 -4 12 -2 12 3 0 6 -7 11 -15 11 -8 0 -14 5 -13
11 2 6 -4 14 -12 16 -9 3 -11 1 -5 -4 6 -4 11 -17 12 -28 1 -11 0 -14 -3 -7
-3 6 -11 9 -16 6 -7 -4 -8 -2 -4 5 4 6 0 14 -8 17 -9 3 -13 11 -9 18 3 6 -4 2
-17 -9 -13 -11 -20 -15 -17 -8 4 6 3 14 -3 18 -5 3 -10 -1 -10 -9 0 -8 -5 -18
-12 -22 -7 -4 -8 -3 -4 4 4 7 3 12 -3 12 -5 0 -13 -5 -16 -10 -4 -6 -10 -8
-14 -6 -4 3 -19 -6 -34 -20 -15 -14 -27 -20 -27 -15 0 6 7 14 16 19 15 8 15
10 0 15 -10 4 -15 3 -11 -3 3 -6 -1 -13 -9 -16 -9 -3 -13 -10 -10 -15 3 -5 1
-9 -5 -9 -5 0 -11 3 -14 8 -2 4 -2 1 -1 -5 2 -7 -6 -17 -17 -23 -11 -6 -17
-15 -14 -21 4 -5 -1 -12 -9 -15 -9 -3 -16 -11 -16 -17 0 -5 9 -2 20 8 11 10
17 23 13 29 -3 6 -2 7 2 3 12 -11 15 -38 4 -31 -10 6 -29 -36 -22 -49 2 -4 -1
-6 -9 -5 -7 2 -12 -3 -10 -10 1 -8 -2 -11 -8 -7 -8 5 -5 13 6 26 15 17 16 19
2 14 -20 -8 -31 -33 -21 -48 4 -7 -2 -5 -12 3 -17 14 -18 14 -5 -10 13 -24 12
-25 -7 -8 -15 14 -22 15 -31 6 -7 -7 -12 -18 -12 -26 0 -12 -3 -12 -17 -1 -11
10 -14 10 -9 2 4 -8 2 -13 -4 -13 -6 0 -8 -5 -4 -12 4 -7 3 -8 -5 -4 -7 4 -9
17 -6 29 4 14 3 18 -3 9 -9 -13 -46 -12 -59 3 -5 4 -3 5 3 2 7 -4 12 2 12 17
0 12 -7 24 -14 25 -8 1 -22 2 -31 3 -15 2 -17 10 -15 45 l4 42 26 -15 c23 -14
24 -14 9 -1 -15 12 -16 19 -7 36 6 12 15 21 21 21 6 0 7 5 4 10 -4 6 -11 7
-17 4 -6 -4 -8 -2 -4 4 3 6 15 9 26 7 11 -2 20 1 20 6 0 6 5 7 12 3 7 -4 8 -3
4 4 -7 11 6 17 27 13 5 -1 5 3 2 9 -4 6 -14 9 -24 6 -13 -5 -13 -3 2 8 10 8
17 18 16 22 -1 4 8 18 20 31 13 12 18 23 13 23 -6 0 -10 9 -9 20 1 11 5 20 10
20 5 0 7 -6 4 -14 -3 -8 0 -17 7 -19 10 -4 12 1 9 14 -3 11 -2 19 3 17 5 -2
10 2 11 7 1 6 -5 9 -12 7 -10 -2 -13 3 -9 12 3 9 10 14 16 13 6 -1 12 8 14 21
4 20 -6 27 -31 22 -5 -1 -2 7 7 17 8 10 14 28 12 41 -2 12 1 22 7 22 5 0 8 -4
5 -9 -3 -5 1 -11 9 -14 12 -5 12 -2 3 18 -6 14 -16 21 -22 18 -6 -4 -5 1 3 11
11 13 16 14 22 4 6 -8 9 -9 9 -2 0 6 -8 18 -17 25 -11 10 -14 10 -9 2 4 -7 2
-13 -3 -13 -14 0 -14 17 -1 25 16 10 12 28 -5 21 -8 -3 -15 -1 -15 4 0 6 7 10
16 10 13 0 11 5 -7 21 -13 11 -19 18 -14 16 6 -3 16 1 23 9 7 8 9 14 3 14 -5
0 -12 7 -15 16 -5 14 -4 15 8 5 11 -9 15 -8 20 4 3 9 2 13 -4 10 -5 -3 -7 1
-4 9 6 16 33 11 46 -8 4 -6 6 4 4 22 -2 18 1 35 7 39 6 4 7 1 2 -7 -5 -8 -3
-11 6 -8 8 3 14 10 14 16 0 5 4 14 9 19 5 5 6 3 2 -4 -9 -15 3 -17 24 -3 8 5
10 10 4 10 -7 0 -15 7 -18 16 -3 8 -2 13 3 10 13 -9 44 32 37 49 -5 13 -2 14
15 4 16 -8 20 -8 14 0 -4 7 -1 18 5 26 9 11 9 15 1 15 -6 0 -11 -4 -11 -10 0
-5 -4 -10 -8 -10 -5 0 -9 7 -9 15 0 8 5 15 12 15 6 0 11 9 11 19 0 13 -6 18
-18 16 -17 -4 -17 -2 -3 17 13 20 13 24 -3 42 -17 21 -17 21 5 3 12 -11 19
-25 16 -33 -3 -8 1 -14 8 -14 7 0 9 3 6 7 -4 3 -2 12 5 20 9 11 8 13 -3 11 -8
-2 -13 4 -13 14 1 10 -2 16 -6 15 -4 -1 -20 14 -36 33 -16 19 -23 31 -16 26 7
-4 12 -2 12 4 0 6 4 9 8 6 5 -3 9 1 9 9 0 8 -3 14 -6 13 -25 -2 -32 4 -26 25
4 14 3 18 -3 9 -7 -10 -11 -10 -22 3 -10 12 -15 13 -28 3 -13 -12 -14 -10 -3
11 8 15 9 21 2 17 -6 -4 -11 -2 -11 3 0 6 -5 11 -11 11 -8 0 -8 -4 0 -14 8
-10 9 -16 1 -21 -6 -4 -9 -1 -8 7 2 7 -3 12 -10 10 -8 -1 -11 2 -7 8 3 5 0 10
-9 10 -8 0 -17 -6 -20 -12 -3 -7 -3 -2 1 12 5 20 3 23 -8 14 -18 -13 -45 -11
-42 3 1 6 -6 9 -17 6 -11 -3 -20 -10 -20 -17 0 -6 -5 -4 -10 4 -9 13 -11 13
-20 0 -6 -9 -10 -10 -10 -3 0 6 5 15 10 18 6 3 10 12 10 18 0 7 -5 4 -11 -6
-8 -13 -14 -15 -30 -7 -10 6 -19 9 -20 8 0 -2 -2 -13 -3 -25 -2 -13 -6 -26
-11 -30 -4 -5 -6 0 -2 9 3 9 0 19 -8 22 -10 3 -12 0 -8 -12 6 -15 5 -16 -12
-2 -11 9 -16 10 -11 3 13 -23 -6 -38 -22 -17 -14 18 -14 18 -8 0 5 -14 2 -17
-9 -12 -9 3 -13 2 -10 -4 3 -6 1 -10 -4 -10 -6 0 -11 -5 -11 -11 0 -5 5 -7 12
-3 7 4 8 3 4 -5 -4 -6 -12 -9 -17 -6 -5 4 -9 1 -9 -4 0 -6 5 -11 12 -11 6 0 8
-3 5 -6 -4 -4 -13 -2 -20 4 -16 14 -28 6 -20 -14 3 -8 10 -11 16 -7 6 3 7 1 3
-5 -5 -8 -13 -9 -25 -2 -21 11 -32 4 -24 -16 3 -10 0 -12 -10 -8 -8 3 -18 0
-23 -7 -4 -8 -3 -10 4 -5 7 4 20 2 29 -4 16 -9 15 -10 -7 -8 -16 2 -24 -2 -22
-10 1 -8 -2 -11 -8 -7 -6 3 -8 11 -5 16 7 10 -4 15 -50 24 -46 9 -49 10 -62
18 -7 5 -13 4 -13 -2 0 -5 -9 -8 -20 -6 -11 2 -20 -1 -20 -7 0 -5 8 -7 18 -4
15 5 14 4 -2 -9 -21 -16 -40 -11 -29 8 4 8 1 7 -9 -1 -14 -11 -18 -10 -26 4
-8 15 -9 15 -15 0 -4 -10 -3 -15 2 -12 5 3 11 0 14 -8 4 -10 0 -12 -14 -9 -18
5 -24 16 -19 38 1 6 -2 7 -6 2 -10 -9 -45 23 -38 35 3 4 0 7 -8 6 -7 -2 -12 3
-11 9 2 7 0 12 -5 12 -4 -1 -15 -1 -25 0 -15 1 -16 5 -7 24 10 20 10 20 -11
-3 -16 -18 -21 -20 -16 -6 5 13 3 17 -7 13 -10 -4 -13 -1 -9 9 4 10 0 12 -13
7 -12 -4 -15 -3 -10 5 4 7 2 12 -4 12 -6 0 -8 5 -4 12 5 7 3 8 -5 4 -7 -5 -10
-15 -7 -25 5 -12 2 -11 -9 3 -8 11 -15 16 -15 10 -1 -5 -8 2 -16 16 -10 17
-13 19 -9 5 3 -11 3 -16 -1 -12 -4 4 -14 1 -22 -6 -13 -9 -14 -9 -8 1 4 7 2
12 -5 12 -8 0 -7 5 2 18 13 15 12 16 -3 4 -9 -8 -14 -21 -12 -30 5 -15 4 -15
-6 1 -6 9 -8 22 -5 27 3 6 4 10 1 10 -3 0 -8 -4 -11 -10z m805 -31 c0 -14 -17
-10 -23 5 -4 10 -1 13 9 9 7 -3 14 -9 14 -14z m-100 -53 c0 -3 -4 -8 -10 -11
-5 -3 -10 -1 -10 4 0 6 5 11 10 11 6 0 10 -2 10 -4z m366 -55 c-6 -2 -12 1
-14 8 -2 6 -10 18 -18 25 -8 8 -14 18 -14 23 0 4 12 -6 28 -22 15 -17 23 -32
18 -34z m-809 -13 c18 -18 33 -37 33 -42 0 -7 -3 -8 -8 -1 -4 6 -16 15 -27 21
-11 6 -20 17 -20 25 0 8 -8 13 -19 11 -11 -2 -15 1 -11 7 10 16 16 14 52 -21z
m351 -23 c-3 -3 -9 2 -12 12 -6 14 -5 15 5 6 7 -7 10 -15 7 -18z m-168 -4 c0
-5 -7 -11 -14 -14 -10 -4 -13 -1 -9 9 6 15 23 19 23 5z m25 0 c3 -5 2 -12 -3
-15 -5 -3 -9 1 -9 9 0 17 3 19 12 6z m65 -16 c0 -1 -11 -5 -24 -7 -16 -3 -23
-1 -19 7 3 10 43 10 43 0z m-618 -547 c-9 -9 -9 -15 1 -27 11 -14 10 -14 -6
-2 -13 10 -15 17 -6 27 6 8 14 14 17 14 3 0 1 -5 -6 -12z m1035 -102 c0 -8 -6
-12 -15 -9 -11 5 -11 7 0 14 7 5 13 9 14 9 0 0 1 -6 1 -14z m-883 -267 c-2 -4
2 -10 8 -12 8 -4 9 -6 2 -6 -6 -1 -17 5 -23 12 -8 10 -7 14 4 14 8 0 12 -4 9
-8z m1009 -5 c-7 -3 -9 -13 -6 -22 4 -14 3 -14 -5 -2 -12 16 -7 30 11 29 9 0
9 -2 0 -5z m-990 -37 c7 -19 -8 -43 -17 -28 -4 6 -1 11 6 12 10 0 10 2 1 6
-15 5 -17 23 -4 23 5 0 11 -6 14 -13z m-596 -13 c-3 -3 -12 -4 -19 -1 -8 3 -5
6 6 6 11 1 17 -2 13 -5z m568 -64 c3 -5 1 -10 -4 -10 -6 0 -11 5 -11 10 0 6 2
10 4 10 3 0 8 -4 11 -10z m877 -52 c-7 -7 -10 -5 -7 8 5 29 6 30 12 16 3 -8 1
-18 -5 -24z m402 -143 c-4 -8 -11 -12 -17 -8 -8 5 -7 8 1 11 7 2 9 9 6 14 -4
7 -2 8 4 4 6 -4 9 -13 6 -21z m-54 -66 c0 -15 -18 -19 -23 -6 -3 8 1 14 9 14
8 0 14 -4 14 -8z m-237 -176 c-6 -15 -23 -18 -23 -3 0 6 4 10 10 10 5 0 7 8 4
18 -5 13 -4 14 4 3 6 -8 8 -20 5 -28z m-28 -172 c3 -5 0 -13 -6 -17 -7 -4 -9
-3 -5 4 3 5 0 13 -6 15 -9 4 -10 6 -1 6 6 1 14 -3 18 -8z m-4 -54 c-8 -8 -14
-7 -23 2 -11 10 -9 11 6 5 15 -6 17 -4 11 6 -6 9 -4 11 4 5 9 -5 10 -10 2 -18z
m-1291 -121 c0 -11 -19 -15 -25 -6 -3 5 1 10 9 10 9 0 16 -2 16 -4z m161 -60
c-5 -6 -10 -15 -11 -21 -3 -20 -6 -14 -5 14 0 19 4 27 13 24 8 -4 9 -9 3 -17z
m-37 -28 c-3 -4 -9 -8 -15 -8 -5 0 -9 4 -9 8 0 5 7 9 15 9 8 0 12 -4 9 -9z
m1629 -3 c4 -8 3 -16 -1 -19 -4 -3 -9 4 -9 15 -2 23 3 25 10 4z m-2091 -78
c-7 -8 -8 -18 -4 -22 4 -5 1 -5 -5 -1 -10 5 -10 11 -1 26 7 11 14 17 17 15 2
-3 -1 -11 -7 -18z m2098 -27 c0 -5 -2 -10 -4 -10 -3 0 -8 5 -11 10 -3 6 -1 10
4 10 6 0 11 -4 11 -10z m-2100 -20 c0 -5 -2 -10 -4 -10 -3 0 -8 5 -11 10 -3 6
-1 10 4 10 6 0 11 -4 11 -10z m1358 -108 c2 -7 8 -10 13 -6 5 3 9 0 9 -5 0
-16 -20 -13 -26 4 -4 8 -10 13 -14 10 -5 -3 -11 -1 -14 4 -4 5 2 8 11 7 9 -2
19 -8 21 -14z m687 -51 c3 -5 2 -12 -3 -15 -5 -3 -9 1 -9 9 0 17 3 19 12 6z
m-1067 -17 c-1 -5 -9 -9 -16 -10 -10 -2 -11 1 -1 12 12 14 24 13 17 -2z m79
10 c-3 -3 -12 -4 -19 -1 -8 3 -5 6 6 6 11 1 17 -2 13 -5z m963 -8 c0 -2 -7 -7
-16 -10 -8 -3 -12 -2 -9 4 6 10 25 14 25 6z m-1356 -22 c3 -8 2 -12 -4 -9 -6
3 -10 10 -10 16 0 14 7 11 14 -7z m781 -4 c3 -6 -1 -7 -9 -4 -18 7 -21 14 -7
14 6 0 13 -4 16 -10z m-1317 -45 c-3 -3 -9 2 -12 12 -6 14 -5 15 5 6 7 -7 10
-15 7 -18z m1832 5 c0 -5 -5 -10 -11 -10 -5 0 -7 5 -4 10 3 6 8 10 11 10 2 0
4 -4 4 -10z m-415 -28 c-3 -3 -11 0 -18 7 -9 10 -8 11 6 5 10 -3 15 -9 12 -12z
m-1315 -12 c8 -5 11 -10 5 -10 -5 0 -17 5 -25 10 -8 5 -10 10 -5 10 6 0 17 -5
25 -10z m330 6 c0 -3 -4 -8 -10 -11 -5 -3 -10 -1 -10 4 0 6 5 11 10 11 6 0 10
-2 10 -4z m1360 -6 c0 -5 -2 -10 -4 -10 -3 0 -8 5 -11 10 -3 6 -1 10 4 10 6 0
11 -4 11 -10z m-60 -19 c0 -5 -7 -11 -14 -14 -10 -4 -13 -1 -9 9 6 15 23 19
23 5z m-85 -21 c3 -5 1 -10 -4 -10 -6 0 -11 5 -11 10 0 6 2 10 4 10 3 0 8 -4
11 -10z"/>
<path d="M1700 2590 c-8 -5 -12 -11 -10 -14 3 -2 14 2 24 10 22 15 10 19 -14
4z"/>
<path d="M937 2579 c7 -7 15 -10 18 -7 3 3 -2 9 -12 12 -14 6 -15 5 -6 -5z"/>
<path d="M1747 2577 c-3 -8 0 -14 7 -14 7 0 13 6 13 14 0 7 -4 13 -8 13 -4 0
-9 -6 -12 -13z"/>
<path d="M727 2560 c-9 -11 -13 -20 -7 -20 5 0 14 9 20 20 6 11 9 20 8 20 -2
0 -11 -9 -21 -20z"/>
<path d="M1335 2440 c-3 -5 -1 -10 4 -10 6 0 11 5 11 10 0 6 -2 10 -4 10 -3 0
-8 -4 -11 -10z"/>
<path d="M1945 2410 c20 -22 35 -26 35 -9 0 5 -5 7 -10 4 -6 -3 -13 1 -16 9
-3 9 -11 16 -17 16 -5 0 -2 -9 8 -20z"/>
<path d="M590 2364 c0 -8 5 -12 10 -9 6 4 8 11 5 16 -9 14 -15 11 -15 -7z"/>
<path d="M567 2319 c7 -7 15 -10 18 -7 3 3 -2 9 -12 12 -14 6 -15 5 -6 -5z"/>
<path d="M1959 2173 c-13 -16 -12 -17 4 -4 16 13 21 21 13 21 -2 0 -10 -8 -17
-17z"/>
<path d="M1924 2148 c-4 -7 -4 -10 1 -6 4 4 15 2 24 -5 14 -11 14 -10 2 6 -16
20 -18 21 -27 5z"/>
<path d="M1880 2080 c-9 -6 -10 -10 -3 -10 6 0 15 5 18 10 8 12 4 12 -15 0z"/>
<path d="M1800 1980 c-9 -6 -10 -10 -3 -10 6 0 15 5 18 10 8 12 4 12 -15 0z"/>
<path d="M1802 1815 c4 -4 3 -14 -3 -22 -7 -8 -8 -13 -1 -13 15 0 23 28 9 36
-7 4 -9 4 -5 -1z"/>
<path d="M1740 1605 c-7 -9 -8 -15 -2 -15 5 0 12 7 16 15 3 8 4 15 2 15 -2 0
-9 -7 -16 -15z"/>
<path d="M790 1600 c0 -5 5 -10 10 -10 6 0 10 5 10 10 0 6 -4 10 -10 10 -5 0
-10 -4 -10 -10z"/>
<path d="M2020 1572 c0 -7 -3 -11 -7 -10 -14 2 -43 -14 -43 -24 0 -7 5 -6 13
1 8 6 16 9 19 6 3 -3 11 1 18 10 7 9 10 18 6 22 -3 3 -6 1 -6 -5z"/>
<path d="M566 1535 c4 -8 8 -15 10 -15 2 0 4 7 4 15 0 8 -4 15 -10 15 -5 0 -7
-7 -4 -15z"/>
<path d="M1674 1513 c3 -6 -2 -16 -11 -22 -15 -8 -16 -12 -4 -23 8 -8 11 -8 7
-1 -3 6 2 16 11 22 15 8 16 12 4 23 -8 8 -11 8 -7 1z"/>
<path d="M859 1493 c-13 -16 -12 -17 4 -4 9 7 17 15 17 17 0 8 -8 3 -21 -13z"/>
<path d="M2186 1485 c9 -14 18 -25 20 -25 2 0 -2 11 -8 25 -6 14 -15 25 -20
25 -5 0 -1 -11 8 -25z"/>
<path d="M340 1489 c0 -5 -5 -7 -12 -3 -6 4 -8 3 -4 -4 3 -5 0 -13 -6 -15 -8
-3 -8 -6 -2 -6 6 -1 19 8 29 19 10 11 13 20 7 20 -7 0 -12 -5 -12 -11z"/>
<path d="M2215 1480 c3 -5 8 -10 11 -10 2 0 4 5 4 10 0 6 -5 10 -11 10 -5 0
-7 -4 -4 -10z"/>
<path d="M2233 1425 c0 -8 4 -15 9 -15 4 0 8 4 8 9 0 6 -4 12 -8 15 -5 3 -9
-1 -9 -9z"/>
<path d="M1632 1401 c-11 -7 -11 -9 0 -14 9 -3 15 1 15 9 0 8 -1 14 -1 14 -1
0 -7 -4 -14 -9z"/>
<path d="M276 1373 c-6 -14 -5 -15 5 -6 7 7 10 15 7 18 -3 3 -9 -2 -12 -12z"/>
<path d="M1681 1334 c0 -11 3 -14 6 -6 3 7 2 16 -1 19 -3 4 -6 -2 -5 -13z"/>
<path d="M312 1251 c-11 -7 -11 -9 0 -14 9 -3 15 1 15 9 0 8 -1 14 -1 14 -1 0
-7 -4 -14 -9z"/>
<path d="M1960 971 c0 -6 4 -13 10 -16 6 -3 7 1 4 9 -7 18 -14 21 -14 7z"/>
<path d="M606 948 c3 -5 10 -6 15 -3 13 9 11 12 -6 12 -8 0 -12 -4 -9 -9z"/>
<path d="M639 882 c9 -7 10 -11 2 -15 -7 -4 -8 -5 0 -3 15 2 13 20 -3 24 -10
3 -10 2 1 -6z"/>
<path d="M1875 881 c-3 -5 -2 -12 3 -15 5 -3 9 1 9 9 0 17 -3 19 -12 6z"/>
<path d="M642 764 c10 -10 20 -15 24 -12 3 4 -5 12 -18 18 -22 12 -22 12 -6
-6z"/>
<path d="M638 738 c10 -13 10 -17 0 -21 -9 -4 -9 -6 -1 -6 20 -2 24 16 5 30
-15 13 -16 12 -4 -3z"/>
<path d="M670 620 c0 -5 5 -10 11 -10 5 0 7 5 4 10 -3 6 -8 10 -11 10 -2 0 -4
-4 -4 -10z"/>
<path d="M470 608 c0 -4 4 -8 9 -8 6 0 12 4 15 8 3 5 -1 9 -9 9 -8 0 -15 -4
-15 -9z"/>
<path d="M686 572 c-3 -6 -1 -14 5 -17 15 -10 25 3 12 16 -7 7 -13 7 -17 1z"/>
<path d="M1970 561 c0 -7 -5 -9 -12 -5 -7 5 -8 3 -3 -5 5 -9 10 -10 18 -2 6 6
8 14 4 18 -4 3 -7 1 -7 -6z"/>
<path d="M626 528 c3 -5 10 -6 15 -3 13 9 11 12 -6 12 -8 0 -12 -4 -9 -9z"/>
<path d="M1866 502 c-3 -5 1 -9 9 -9 8 0 15 4 15 9 0 4 -4 8 -9 8 -6 0 -12 -4
-15 -8z"/>
<path d="M213 308 c1 -7 8 -19 15 -26 7 -8 10 -18 7 -23 -4 -5 1 -9 9 -9 13 0
12 6 -5 35 -22 36 -31 44 -26 23z"/>
<path d="M236 227 c3 -10 9 -15 12 -12 3 3 0 11 -7 18 -10 9 -11 8 -5 -6z"/>
<path d="M1030 220 c0 -5 5 -10 11 -10 5 0 7 -5 3 -12 -4 -7 -3 -8 5 -4 9 6 9
11 0 22 -14 17 -19 18 -19 4z"/>
<path d="M2250 139 c0 -5 5 -7 10 -4 6 3 10 8 10 11 0 2 -4 4 -10 4 -5 0 -10
-5 -10 -11z"/>
<path d="M370 100 c0 -5 5 -10 11 -10 5 0 7 5 4 10 -3 6 -8 10 -11 10 -2 0 -4
-4 -4 -10z"/>
<path d="M1802 44 c10 -10 20 -15 24 -12 3 4 -5 12 -18 18 -22 12 -22 12 -6
-6z"/>
<path d="M453 35 c0 -8 4 -12 9 -9 4 3 8 9 8 15 0 5 -4 9 -8 9 -5 0 -9 -7 -9
-15z"/>
<path d="M1874 25 c1 -22 2 -23 13 -9 12 17 9 34 -7 34 -4 0 -7 -11 -6 -25z"/>
<path d="M526 27 c3 -10 9 -15 12 -12 3 3 0 11 -7 18 -10 9 -11 8 -5 -6z"/>
<path d="M655 30 c-3 -5 -1 -10 4 -10 6 0 11 5 11 10 0 6 -2 10 -4 10 -3 0 -8
-4 -11 -10z"/>
<path d="M2035 30 c-3 -5 -1 -10 4 -10 6 0 11 5 11 10 0 6 -2 10 -4 10 -3 0
-8 -4 -11 -10z"/>
<path d="M550 18 c0 -4 4 -8 9 -8 6 0 12 4 15 8 3 5 -1 9 -9 9 -8 0 -15 -4
-15 -9z"/>
</g>
</svg>
